<svg width="115" height="25" viewBox="0 0 115 25" fill="none" xmlns="http://www.w3.org/2000/svg">
<path d="M20.1348 11.2793C20.1348 12.209 20.0208 13.1068 19.793 13.9727C19.5742 14.8294 19.2598 15.6406 18.8496 16.4062C18.4395 17.1719 17.9473 17.8783 17.373 18.5254C16.8079 19.1634 16.179 19.7194 15.4863 20.1934C15.6139 20.6217 15.7734 21.0228 15.9648 21.3965C16.1654 21.7793 16.3978 22.112 16.6621 22.3945C16.9355 22.6862 17.2363 22.9141 17.5645 23.0781C17.8926 23.2422 18.248 23.3242 18.6309 23.3242C18.7949 23.3242 18.9635 23.3014 19.1367 23.2559C19.3099 23.2194 19.474 23.151 19.6289 23.0508C19.6836 23.0052 19.7428 22.9733 19.8066 22.9551C19.8796 22.9368 19.9434 22.9277 19.998 22.9277C20.1803 22.9277 20.3444 22.9915 20.4902 23.1191C20.6452 23.2559 20.7227 23.429 20.7227 23.6387C20.7227 23.903 20.6133 24.1081 20.3945 24.2539C20.1302 24.418 19.8477 24.5456 19.5469 24.6367C19.2461 24.7279 18.9408 24.7734 18.6309 24.7734C18.1022 24.7734 17.61 24.6732 17.1543 24.4727C16.6986 24.2721 16.2839 23.9987 15.9102 23.6523C15.5365 23.306 15.2038 22.8958 14.9121 22.4219C14.6296 21.957 14.3926 21.4557 14.2012 20.918C13.5814 21.2096 12.9388 21.4329 12.2734 21.5879C11.6172 21.752 10.9336 21.834 10.2227 21.834C9.32031 21.834 8.44531 21.7064 7.59766 21.4512C6.75911 21.2051 5.97526 20.8542 5.24609 20.3984C4.51693 19.9336 3.84701 19.3822 3.23633 18.7441C2.63477 18.097 2.11979 17.3861 1.69141 16.6113C1.26302 15.8275 0.930339 14.9844 0.693359 14.082C0.45638 13.1797 0.337891 12.2454 0.337891 11.2793C0.337891 10.3132 0.45638 9.37891 0.693359 8.47656C0.930339 7.57422 1.26302 6.73568 1.69141 5.96094C2.11979 5.17708 2.63477 4.46615 3.23633 3.82812C3.84701 3.18099 4.51693 2.62956 5.24609 2.17383C5.97526 1.70898 6.75911 1.35352 7.59766 1.10742C8.44531 0.852214 9.32031 0.724609 10.2227 0.724609C11.1797 0.724609 12.0866 0.861328 12.9434 1.13477C13.8092 1.4082 14.6068 1.78646 15.3359 2.26953C16.0742 2.7526 16.7396 3.32682 17.332 3.99219C17.9245 4.65755 18.4258 5.38216 18.8359 6.16602C19.2552 6.94987 19.5742 7.77474 19.793 8.64062C20.0208 9.50651 20.1348 10.3861 20.1348 11.2793ZM18.7129 11.2793C18.7129 10.6595 18.6309 10.0124 18.4668 9.33789C18.3027 8.6543 18.0703 7.98893 17.7695 7.3418C17.4779 6.68555 17.1224 6.06576 16.7031 5.48242C16.293 4.88997 15.8372 4.375 15.3359 3.9375C14.8438 3.49089 14.3151 3.13997 13.75 2.88477C13.1849 2.62044 12.6061 2.48828 12.0137 2.48828C11.2116 2.48828 10.487 2.60677 9.83984 2.84375C9.19271 3.08073 8.61393 3.4043 8.10352 3.81445C7.60221 4.21549 7.16471 4.69401 6.79102 5.25C6.41732 5.80599 6.10742 6.40299 5.86133 7.04102C5.62435 7.66992 5.44661 8.33073 5.32812 9.02344C5.20964 9.70703 5.15039 10.3861 5.15039 11.0605C5.15039 11.7988 5.19141 12.5371 5.27344 13.2754C5.36458 14.0137 5.51042 14.7246 5.71094 15.4082C5.92057 16.0827 6.1849 16.7161 6.50391 17.3086C6.83203 17.8919 7.23307 18.4023 7.70703 18.8398C8.18099 19.2682 8.73242 19.6055 9.36133 19.8516C9.99935 20.0977 10.724 20.2207 11.5352 20.2207C11.9453 20.2207 12.3418 20.1706 12.7246 20.0703C13.1165 19.9609 13.4948 19.8151 13.8594 19.6328C13.6406 18.9401 13.3262 18.4115 12.916 18.0469C12.5059 17.6823 11.9727 17.5 11.3164 17.5C11.1068 17.5 10.9062 17.5182 10.7148 17.5547C10.5326 17.5911 10.3639 17.6322 10.209 17.6777C10.0358 17.7233 9.87174 17.778 9.7168 17.8418C9.60742 17.8965 9.50716 17.9238 9.41602 17.9238C9.24284 17.9238 9.07878 17.8555 8.92383 17.7188C8.76888 17.5729 8.69141 17.3952 8.69141 17.1855C8.69141 17.0579 8.72786 16.9349 8.80078 16.8164C8.8737 16.6979 8.97396 16.6068 9.10156 16.543C9.11068 16.5339 9.17448 16.5065 9.29297 16.4609C9.42057 16.4062 9.58464 16.3516 9.78516 16.2969C9.98568 16.2422 10.2181 16.1921 10.4824 16.1465C10.7467 16.1009 11.0247 16.0781 11.3164 16.0781C12.2279 16.0781 12.998 16.3197 13.627 16.8027C14.265 17.2858 14.7572 17.9648 15.1035 18.8398C15.6322 18.4023 16.1152 17.8919 16.5527 17.3086C16.9993 16.7253 17.3822 16.1009 17.7012 15.4355C18.0202 14.7702 18.2663 14.082 18.4395 13.3711C18.6217 12.6602 18.7129 11.9629 18.7129 11.2793ZM40.2051 7.45117C40.2051 7.61523 40.1504 7.76562 40.041 7.90234C39.9408 8.03906 39.7995 8.12109 39.6172 8.14844C39.2982 8.22135 38.9792 8.2806 38.6602 8.32617C38.3411 8.36263 38.0267 8.40365 37.7168 8.44922L37.498 19.7695C37.8171 19.7695 38.1406 19.7786 38.4688 19.7969C38.806 19.806 39.1341 19.8333 39.4531 19.8789C39.6536 19.8971 39.8086 19.9792 39.918 20.125C40.0365 20.2617 40.0957 20.4121 40.0957 20.5762C40.0957 20.804 40.0182 20.9818 39.8633 21.1094C39.7174 21.2461 39.5625 21.3145 39.3984 21.3145H39.3164C38.9427 21.2689 38.5736 21.237 38.209 21.2188C37.8535 21.2005 37.5026 21.1914 37.1562 21.1914C36.5273 21.1914 35.903 21.2233 35.2832 21.2871C34.6725 21.3509 34.0664 21.4512 33.4648 21.5879H33.3145C33.123 21.5879 32.9544 21.515 32.8086 21.3691C32.6628 21.2324 32.5898 21.0729 32.5898 20.8906V20.8633L32.6719 18.3613C32.0977 19.4095 31.4277 20.2116 30.6621 20.7676C29.8965 21.3145 29.0443 21.5879 28.1055 21.5879C27.513 21.5879 26.9889 21.4922 26.5332 21.3008C26.0866 21.1094 25.6901 20.8542 25.3438 20.5352C25.0065 20.207 24.7194 19.8333 24.4824 19.4141C24.2546 18.9857 24.0677 18.5391 23.9219 18.0742C23.7852 17.6003 23.6849 17.1217 23.6211 16.6387C23.5573 16.1556 23.5254 15.6953 23.5254 15.2578C23.5254 14.0638 23.6393 12.8926 23.8672 11.7441C24.1042 10.5957 24.4551 9.51107 24.9199 8.49023L22.459 8.42188C22.2585 8.40365 22.0898 8.33073 21.9531 8.20312C21.8255 8.06641 21.7617 7.89779 21.7617 7.69727C21.7617 7.51497 21.8301 7.35547 21.9668 7.21875C22.1035 7.07292 22.2767 7 22.4863 7L26.0957 7.08203C26.2962 7.10938 26.4603 7.19141 26.5879 7.32812C26.7246 7.45573 26.793 7.61523 26.793 7.80664C26.793 7.87956 26.7793 7.94792 26.752 8.01172C26.7337 8.06641 26.7109 8.12109 26.6836 8.17578C26.5104 8.34896 26.3464 8.60872 26.1914 8.95508C26.0365 9.30143 25.8952 9.69792 25.7676 10.1445C25.64 10.582 25.526 11.0514 25.4258 11.5527C25.3255 12.0449 25.2389 12.528 25.166 13.002C25.0931 13.4668 25.0384 13.8997 25.002 14.3008C24.9655 14.7018 24.9473 15.0299 24.9473 15.2852C24.9473 15.8503 24.9928 16.4245 25.084 17.0078C25.1842 17.582 25.3529 18.1061 25.5898 18.5801C25.8268 19.0449 26.1458 19.4277 26.5469 19.7285C26.9479 20.0202 27.4583 20.166 28.0781 20.166C28.6341 20.166 29.1628 20.0065 29.6641 19.6875C30.1654 19.3594 30.6165 18.8945 31.0176 18.293C31.4277 17.6914 31.7832 16.9577 32.084 16.0918C32.3939 15.2259 32.64 14.2507 32.8223 13.166L32.9863 7.66992C32.9863 7.4694 33.0638 7.3099 33.2188 7.19141C33.3737 7.0638 33.5378 7 33.7109 7H33.793C34.1029 7.04557 34.4173 7.07747 34.7363 7.0957C35.0553 7.10482 35.388 7.10938 35.7344 7.10938C36.2904 7.10938 36.8691 7.08203 37.4707 7.02734C38.0814 6.97266 38.7148 6.88151 39.3711 6.75391C39.3893 6.75391 39.4076 6.74935 39.4258 6.74023C39.444 6.73112 39.4622 6.72656 39.4805 6.72656C39.6901 6.72656 39.8633 6.80404 40 6.95898C40.1367 7.10482 40.2051 7.26888 40.2051 7.45117ZM50.6367 21.3418C50.6185 21.3418 50.5957 21.3372 50.5684 21.3281C50.5501 21.319 50.5273 21.3145 50.5 21.3145C49.7617 21.1686 49.0599 21.0638 48.3945 21C47.7292 20.9271 47.0684 20.8906 46.4121 20.8906C45.7467 20.8906 45.0859 20.9271 44.4297 21C43.7734 21.0638 43.0807 21.1686 42.3516 21.3145C42.3242 21.3145 42.3014 21.319 42.2832 21.3281C42.265 21.3372 42.2422 21.3418 42.2148 21.3418C42.0052 21.3418 41.832 21.2643 41.6953 21.1094C41.5677 20.9544 41.5039 20.7858 41.5039 20.6035C41.5039 20.4395 41.554 20.2891 41.6543 20.1523C41.7637 20.0156 41.9004 19.9336 42.0645 19.9062C42.3835 19.8333 42.7025 19.7786 43.0215 19.7422C43.3496 19.6966 43.6686 19.651 43.9785 19.6055V9.13281C43.4043 9.10547 42.9212 9.06901 42.5293 9.02344C42.1374 8.97786 41.9186 8.95508 41.873 8.95508C41.6908 8.92773 41.5404 8.8457 41.4219 8.70898C41.3125 8.57227 41.2578 8.41276 41.2578 8.23047C41.2578 8.0026 41.3398 7.82943 41.5039 7.71094C41.668 7.59245 41.8275 7.5332 41.9824 7.5332H42.0645C42.0736 7.5332 42.1784 7.54688 42.3789 7.57422C42.5794 7.59245 42.8392 7.61523 43.1582 7.64258C43.4863 7.66992 43.8555 7.69727 44.2656 7.72461C44.6758 7.74284 45.0996 7.75195 45.5371 7.75195C45.9746 7.75195 46.403 7.73828 46.8223 7.71094C47.2415 7.67448 47.6243 7.61523 47.9707 7.5332H48.1211C48.3307 7.5332 48.5039 7.60612 48.6406 7.75195C48.7773 7.88867 48.8457 8.04818 48.8457 8.23047L48.8184 19.6055C49.1374 19.651 49.4564 19.6966 49.7754 19.7422C50.1035 19.7786 50.4362 19.8333 50.7734 19.9062C50.9466 19.9336 51.0879 20.0156 51.1973 20.1523C51.3066 20.2891 51.3613 20.4395 51.3613 20.6035C51.3613 20.8132 51.2839 20.9863 51.1289 21.123C50.974 21.2689 50.8099 21.3418 50.6367 21.3418ZM48.6543 3.36328C48.6543 3.70052 48.5905 4.01953 48.4629 4.32031C48.3353 4.61198 48.1576 4.86719 47.9297 5.08594C47.7109 5.30469 47.4512 5.47786 47.1504 5.60547C46.8587 5.73307 46.5443 5.79688 46.207 5.79688C45.8698 5.79688 45.5508 5.73307 45.25 5.60547C44.9583 5.47786 44.7031 5.30469 44.4844 5.08594C44.2656 4.86719 44.0924 4.61198 43.9648 4.32031C43.8372 4.01953 43.7734 3.70052 43.7734 3.36328C43.7734 3.02604 43.8372 2.71159 43.9648 2.41992C44.0924 2.11914 44.2656 1.85938 44.4844 1.64062C44.7031 1.42188 44.9583 1.2487 45.25 1.12109C45.5508 0.99349 45.8698 0.929688 46.207 0.929688C46.5443 0.929688 46.8587 0.99349 47.1504 1.12109C47.4512 1.2487 47.7109 1.42188 47.9297 1.64062C48.1576 1.85938 48.3353 2.11914 48.4629 2.41992C48.5905 2.71159 48.6543 3.02604 48.6543 3.36328ZM66.8926 16.1055C66.7559 16.707 66.651 17.3177 66.5781 17.9375C66.5143 18.5573 66.4824 19.2044 66.4824 19.8789V20.1387C66.4642 20.3483 66.3913 20.5215 66.2637 20.6582C66.1361 20.7949 65.972 20.8633 65.7715 20.8633H65.7441C65.0059 20.8359 64.2585 20.8177 63.502 20.8086C62.7546 20.7904 62.0117 20.7812 61.2734 20.7812C59.8789 20.7812 58.498 20.804 57.1309 20.8496C55.7637 20.8861 54.3965 20.9544 53.0293 21.0547H52.9746C52.7832 21.0547 52.6191 20.9818 52.4824 20.8359C52.3457 20.681 52.2773 20.5215 52.2773 20.3574C52.2773 20.2845 52.2819 20.2161 52.291 20.1523C52.3092 20.0794 52.3411 20.0065 52.3867 19.9336L60.4805 8.01172H59.9199C59.0632 8.01172 58.2246 7.99805 57.4043 7.9707C56.584 7.94336 55.7637 7.9069 54.9434 7.86133C54.7611 8.94596 54.4876 10.0033 54.123 11.0332C54.0684 11.1882 53.9772 11.3066 53.8496 11.3887C53.7311 11.4707 53.599 11.5117 53.4531 11.5117C53.2253 11.5117 53.0475 11.4388 52.9199 11.293C52.7923 11.138 52.7285 10.9785 52.7285 10.8145C52.7285 10.7689 52.7331 10.7279 52.7422 10.6914C52.7513 10.6458 52.765 10.6003 52.7832 10.5547C52.9928 9.98047 53.1615 9.39714 53.2891 8.80469C53.4167 8.21224 53.5169 7.62891 53.5898 7.05469C53.6081 6.8724 53.6855 6.72201 53.8223 6.60352C53.9681 6.47591 54.1276 6.41211 54.3008 6.41211H54.3555C55.2669 6.4668 56.1829 6.50326 57.1035 6.52148C58.0241 6.53971 58.9629 6.54883 59.9199 6.54883C60.8952 6.54883 61.8796 6.53971 62.873 6.52148C63.8757 6.50326 64.901 6.4668 65.9492 6.41211H66.0039C66.2135 6.41211 66.3822 6.48958 66.5098 6.64453C66.6374 6.79036 66.7012 6.95443 66.7012 7.13672C66.7012 7.20964 66.6921 7.28255 66.6738 7.35547C66.6647 7.41927 66.6374 7.47852 66.5918 7.5332L58.5527 19.373C58.9993 19.3548 59.4505 19.3457 59.9062 19.3457C60.3711 19.3457 60.8359 19.3457 61.3008 19.3457C61.9297 19.3457 62.554 19.3503 63.1738 19.3594C63.7936 19.3594 64.418 19.373 65.0469 19.4004C65.0651 18.7533 65.1107 18.1335 65.1836 17.541C65.2656 16.9486 65.3704 16.3652 65.498 15.791C65.5436 15.6178 65.6302 15.4811 65.7578 15.3809C65.8945 15.2806 66.0404 15.2305 66.1953 15.2305C66.4323 15.2305 66.61 15.3125 66.7285 15.4766C66.8561 15.6406 66.9199 15.791 66.9199 15.9277C66.9199 15.9551 66.9199 15.987 66.9199 16.0234C66.9199 16.0508 66.9108 16.0781 66.8926 16.1055ZM83.2168 16.1055C83.0801 16.707 82.9753 17.3177 82.9023 17.9375C82.8385 18.5573 82.8066 19.2044 82.8066 19.8789V20.1387C82.7884 20.3483 82.7155 20.5215 82.5879 20.6582C82.4603 20.7949 82.2962 20.8633 82.0957 20.8633H82.0684C81.3301 20.8359 80.5827 20.8177 79.8262 20.8086C79.0788 20.7904 78.3359 20.7812 77.5977 20.7812C76.2031 20.7812 74.8223 20.804 73.4551 20.8496C72.0879 20.8861 70.7207 20.9544 69.3535 21.0547H69.2988C69.1074 21.0547 68.9434 20.9818 68.8066 20.8359C68.6699 20.681 68.6016 20.5215 68.6016 20.3574C68.6016 20.2845 68.6061 20.2161 68.6152 20.1523C68.6335 20.0794 68.6654 20.0065 68.7109 19.9336L76.8047 8.01172H76.2441C75.3874 8.01172 74.5488 7.99805 73.7285 7.9707C72.9082 7.94336 72.0879 7.9069 71.2676 7.86133C71.0853 8.94596 70.8118 10.0033 70.4473 11.0332C70.3926 11.1882 70.3014 11.3066 70.1738 11.3887C70.0553 11.4707 69.9232 11.5117 69.7773 11.5117C69.5495 11.5117 69.3717 11.4388 69.2441 11.293C69.1165 11.138 69.0527 10.9785 69.0527 10.8145C69.0527 10.7689 69.0573 10.7279 69.0664 10.6914C69.0755 10.6458 69.0892 10.6003 69.1074 10.5547C69.3171 9.98047 69.4857 9.39714 69.6133 8.80469C69.7409 8.21224 69.8411 7.62891 69.9141 7.05469C69.9323 6.8724 70.0098 6.72201 70.1465 6.60352C70.2923 6.47591 70.4518 6.41211 70.625 6.41211H70.6797C71.5911 6.4668 72.5072 6.50326 73.4277 6.52148C74.3483 6.53971 75.2871 6.54883 76.2441 6.54883C77.2194 6.54883 78.2038 6.53971 79.1973 6.52148C80.1999 6.50326 81.2253 6.4668 82.2734 6.41211H82.3281C82.5378 6.41211 82.7064 6.48958 82.834 6.64453C82.9616 6.79036 83.0254 6.95443 83.0254 7.13672C83.0254 7.20964 83.0163 7.28255 82.998 7.35547C82.9889 7.41927 82.9616 7.47852 82.916 7.5332L74.877 19.373C75.3236 19.3548 75.7747 19.3457 76.2305 19.3457C76.6953 19.3457 77.1602 19.3457 77.625 19.3457C78.2539 19.3457 78.8783 19.3503 79.498 19.3594C80.1178 19.3594 80.7422 19.373 81.3711 19.4004C81.3893 18.7533 81.4349 18.1335 81.5078 17.541C81.5898 16.9486 81.6947 16.3652 81.8223 15.791C81.8678 15.6178 81.9544 15.4811 82.082 15.3809C82.2188 15.2806 82.3646 15.2305 82.5195 15.2305C82.7565 15.2305 82.9342 15.3125 83.0527 15.4766C83.1803 15.6406 83.2441 15.791 83.2441 15.9277C83.2441 15.9551 83.2441 15.987 83.2441 16.0234C83.2441 16.0508 83.235 16.0781 83.2168 16.1055ZM97.5039 13.7812V13.5488C97.5039 12.8652 97.431 12.2318 97.2852 11.6484C97.1393 11.0651 96.9069 10.5501 96.5879 10.1035C96.278 9.64779 95.877 9.27409 95.3848 8.98242C94.8926 8.69076 94.3001 8.49479 93.6074 8.39453C93.1243 8.44922 92.7051 8.58138 92.3496 8.79102C91.9941 9.00065 91.6888 9.26042 91.4336 9.57031C91.1875 9.87109 90.9824 10.2129 90.8184 10.5957C90.6543 10.9785 90.5221 11.375 90.4219 11.7852C90.3307 12.1862 90.2624 12.5918 90.2168 13.002C90.1712 13.403 90.1439 13.7812 90.1348 14.1367C90.2806 14.1823 90.4629 14.2324 90.6816 14.2871C90.9095 14.3418 91.1647 14.3965 91.4473 14.4512C91.7298 14.4967 92.0352 14.5378 92.3633 14.5742C92.7005 14.6016 93.0514 14.6152 93.416 14.6152C94.1908 14.6152 94.9154 14.5423 95.5898 14.3965C96.2734 14.2507 96.9115 14.0456 97.5039 13.7812ZM98.8984 14.3145C98.8711 14.5514 98.7435 14.7565 98.5156 14.9297C98.2878 15.1029 98.0007 15.2578 97.6543 15.3945C97.3079 15.5221 96.9251 15.6315 96.5059 15.7227C96.0957 15.8047 95.6901 15.873 95.2891 15.9277C94.888 15.9824 94.5189 16.0234 94.1816 16.0508C93.8444 16.069 93.5801 16.0781 93.3887 16.0781C92.7233 16.0781 92.1081 16.0326 91.543 15.9414C90.987 15.8503 90.5267 15.7546 90.1621 15.6543C90.2168 16.2194 90.3216 16.7754 90.4766 17.3223C90.6315 17.8691 90.8548 18.3613 91.1465 18.7988C91.4382 19.2272 91.8027 19.5781 92.2402 19.8516C92.6777 20.1159 93.2064 20.248 93.8262 20.248C94.054 20.248 94.3138 20.2207 94.6055 20.166C94.8971 20.1022 95.1842 20.0156 95.4668 19.9062C95.7493 19.7878 96.0091 19.651 96.2461 19.4961C96.4831 19.332 96.6699 19.1497 96.8066 18.9492C96.9616 18.7669 97.1484 18.6758 97.3672 18.6758C97.5586 18.6758 97.7272 18.7533 97.873 18.9082C98.0189 19.054 98.0918 19.2181 98.0918 19.4004C98.0918 19.5918 98.0326 19.7422 97.9141 19.8516C97.6953 20.1888 97.39 20.4759 96.998 20.7129C96.6061 20.9499 96.1823 21.1413 95.7266 21.2871C95.2708 21.4421 94.8105 21.5514 94.3457 21.6152C93.8809 21.6882 93.457 21.7246 93.0742 21.7246C91.9805 21.7246 90.9642 21.5286 90.0254 21.1367C89.0866 20.7539 88.2708 20.2253 87.5781 19.5508C86.8854 18.8763 86.3385 18.0833 85.9375 17.1719C85.5456 16.2604 85.3496 15.276 85.3496 14.2188C85.3496 13.0612 85.5228 12.0312 85.8691 11.1289C86.2155 10.2174 86.7077 9.45182 87.3457 8.83203C87.9837 8.20312 88.7585 7.72917 89.6699 7.41016C90.5814 7.08203 91.6068 6.91797 92.7461 6.91797C93.8216 6.96354 94.7467 7.14583 95.5215 7.46484C96.3053 7.78385 96.9479 8.22591 97.4492 8.79102C97.9505 9.35612 98.3197 10.0397 98.5566 10.8418C98.8027 11.6348 98.9258 12.528 98.9258 13.5215C98.9258 13.7493 98.9212 13.9316 98.9121 14.0684C98.903 14.196 98.8984 14.278 98.8984 14.3145ZM114.881 17.1035C114.881 17.623 114.79 18.1016 114.607 18.5391C114.425 18.9674 114.179 19.3594 113.869 19.7148C113.559 20.0612 113.199 20.3665 112.789 20.6309C112.388 20.8861 111.96 21.1003 111.504 21.2734C111.057 21.4557 110.602 21.5879 110.137 21.6699C109.672 21.7611 109.225 21.8066 108.797 21.8066C107.639 21.8066 106.55 21.6335 105.529 21.2871C104.508 20.9499 103.583 20.4258 102.754 19.7148C102.754 19.8698 102.754 20.0247 102.754 20.1797C102.754 20.3255 102.763 20.4668 102.781 20.6035V20.6582C102.781 20.8405 102.717 21.0046 102.59 21.1504C102.471 21.2962 102.321 21.3691 102.139 21.3691C101.929 21.3691 101.747 21.3053 101.592 21.1777C101.446 21.0592 101.364 20.9089 101.346 20.7266C101.327 20.5443 101.318 20.362 101.318 20.1797C101.318 19.9883 101.318 19.7969 101.318 19.6055C101.318 19.2682 101.323 18.9355 101.332 18.6074C101.35 18.2793 101.368 17.9876 101.387 17.7324C101.405 17.4681 101.419 17.2539 101.428 17.0898C101.446 16.9167 101.46 16.821 101.469 16.8027C101.487 16.6204 101.56 16.4701 101.688 16.3516C101.824 16.224 101.984 16.1602 102.166 16.1602C102.394 16.1602 102.572 16.2331 102.699 16.3789C102.827 16.5247 102.891 16.6842 102.891 16.8574V16.9395C102.882 17.0124 102.872 17.0944 102.863 17.1855C102.854 17.2585 102.845 17.3496 102.836 17.459C102.827 17.5684 102.818 17.6868 102.809 17.8145C103.638 18.6986 104.549 19.3457 105.543 19.7559C106.546 20.1569 107.63 20.3574 108.797 20.3574C108.934 20.3574 109.111 20.3483 109.33 20.3301C109.549 20.3118 109.777 20.2845 110.014 20.248C110.26 20.2025 110.506 20.1478 110.752 20.084C110.998 20.0111 111.217 19.9245 111.408 19.8242C111.609 19.7148 111.768 19.5872 111.887 19.4414C112.014 19.2956 112.078 19.1224 112.078 18.9219C112.078 18.7214 111.987 18.5436 111.805 18.3887C111.632 18.2246 111.408 18.0788 111.135 17.9512C110.861 17.8236 110.556 17.7142 110.219 17.623C109.891 17.5319 109.567 17.4544 109.248 17.3906C108.938 17.3268 108.656 17.2767 108.4 17.2402C108.154 17.2038 107.972 17.1764 107.854 17.1582C107.07 17.0762 106.295 16.9258 105.529 16.707C104.773 16.4792 104.089 16.1693 103.479 15.7773C102.868 15.3854 102.376 14.9023 102.002 14.3281C101.628 13.7539 101.441 13.0749 101.441 12.291C101.441 11.4889 101.605 10.7689 101.934 10.1309C102.262 9.48372 102.69 8.93685 103.219 8.49023C103.757 8.04362 104.367 7.70182 105.051 7.46484C105.743 7.22786 106.45 7.10938 107.17 7.10938C108.118 7.10938 109.016 7.22786 109.863 7.46484C110.72 7.69271 111.504 8.05273 112.215 8.54492C112.297 8.3444 112.393 8.14388 112.502 7.94336C112.611 7.73372 112.721 7.5332 112.83 7.3418C112.903 7.22331 112.994 7.13672 113.104 7.08203C113.222 7.02734 113.336 7 113.445 7C113.655 7 113.828 7.07292 113.965 7.21875C114.102 7.35547 114.17 7.51497 114.17 7.69727C114.17 7.8431 114.133 7.96615 114.061 8.06641C113.714 8.6862 113.423 9.3151 113.186 9.95312C112.958 10.582 112.803 11.2201 112.721 11.8672C112.693 12.0404 112.611 12.1862 112.475 12.3047C112.338 12.4232 112.178 12.4824 111.996 12.4824C111.796 12.4824 111.627 12.4095 111.49 12.2637C111.354 12.1087 111.285 11.9401 111.285 11.7578V11.6484C111.385 11.0833 111.518 10.5137 111.682 9.93945C111.025 9.41992 110.31 9.0599 109.535 8.85938C108.76 8.64974 107.972 8.54492 107.17 8.54492C106.896 8.54492 106.609 8.57682 106.309 8.64062C106.008 8.69531 105.725 8.79102 105.461 8.92773C105.206 9.05534 104.992 9.22852 104.818 9.44727C104.654 9.66602 104.572 9.9349 104.572 10.2539C104.572 10.5365 104.663 10.7871 104.846 11.0059C105.028 11.2155 105.26 11.4023 105.543 11.5664C105.826 11.7305 106.14 11.8717 106.486 11.9902C106.842 12.1087 107.188 12.209 107.525 12.291C107.872 12.373 108.191 12.4414 108.482 12.4961C108.783 12.5508 109.02 12.5964 109.193 12.6328C109.831 12.7604 110.483 12.929 111.148 13.1387C111.823 13.3392 112.434 13.6126 112.98 13.959C113.536 14.2962 113.992 14.7201 114.348 15.2305C114.703 15.7409 114.881 16.3652 114.881 17.1035Z" fill="#F42A66"/>
</svg>
