<svg width="400" height="324" viewBox="0 0 400 324" fill="none" xmlns="http://www.w3.org/2000/svg">
<path fill-rule="evenodd" clip-rule="evenodd" d="M393.737 83.0773C393.427 82.8524 392.692 82.773 392.35 82.7052C390.927 82.4258 389.462 82.3041 388.011 82.3041C383.54 82.311 378.996 82.7486 374.599 83.5062C371.807 83.9867 368.431 85.6055 365.654 84.7263C360.816 83.1949 355.926 83.2703 351.335 85.4566C347.138 87.4556 343.953 91.2526 342.093 95.3551C341.813 95.9747 340.674 98.2543 340.352 99.7908C340.215 100.105 340.082 100.421 339.963 100.742C339.625 101.654 339.321 102.581 339.039 103.511C338.918 103.907 338.615 104.782 338.975 104.952C338.4 106.011 337.89 107.101 337.465 108.228C336.23 111.503 334.88 115.097 334.445 118.569C334.285 119.854 334.279 121.148 334.428 122.435C334.502 123.072 334.472 124.352 334.904 124.837C335.823 125.864 336.294 124.426 336.191 123.741C335.4 118.521 336.927 113.618 338.737 108.712C339.907 105.539 341.83 102.636 343.984 100.007C345.727 97.8787 347.597 96.203 349.986 94.7923C352.909 93.0668 356.033 91.6723 359.128 90.2731C361.164 89.3527 363.203 88.4566 365.295 87.6637C365.761 87.4869 366.492 87.0342 367.009 87.0325C368.099 87.029 369.646 87.8318 370.7 88.1303C374.166 89.1133 377.677 90.3716 381.26 90.8736C383.558 91.1958 385.711 90.833 387.86 90.0696C388.079 89.992 388.448 89.7914 388.899 89.5051C390.494 88.893 392.004 88.1227 393.318 87.0111C394.075 86.3712 394.762 85.5435 395.389 84.786C395.576 84.5599 395.659 84.3002 395.662 84.0533C395.804 83.9797 395.898 83.8928 395.92 83.7919C396.076 83.0466 394.65 83.0332 393.737 83.0773Z" fill="#FF7FA6"/>
<path fill-rule="evenodd" clip-rule="evenodd" d="M30.4933 145.215C29.616 145.923 28.7556 146.647 27.9162 147.4C27.2765 147.974 26.1443 148.66 25.9146 149.53C25.6759 150.433 26.4296 151.279 27.025 151.825C30.1736 154.714 33.719 156.666 38.0819 156.992C44.7997 157.492 50.6461 155.781 56.4749 152.415C60.5691 150.05 63.2811 146.553 63.8734 141.83C68.7494 143.851 73.465 146.636 77.4726 150.055C79.4499 151.742 81.153 153.61 82.7281 155.682C83.7371 157.009 84.713 158.357 85.6186 159.757C86.0121 160.366 86.4126 161.445 87.0624 161.795C87.8255 162.206 88.748 161.561 88.7102 160.716C88.6782 160.011 87.9162 159.195 87.5593 158.619C86.9676 157.663 86.3666 156.713 85.7337 155.784C84.7095 154.279 83.6511 152.796 82.4968 151.387C79.9021 148.223 76.6013 145.609 73.1796 143.38C66.6151 139.104 59.4107 136.41 51.4234 136.181C46.512 136.041 42.3804 137.714 38.1804 140.213C35.5655 141.769 32.8661 143.299 30.4933 145.215Z" fill="#DDE3E9"/>
<path fill-rule="evenodd" clip-rule="evenodd" d="M94.2023 124.531C89.0839 119.276 83.9481 114.085 78.2299 109.456C74.8599 106.729 71.3086 104.249 67.8305 101.664C68.2315 102.014 68.625 102.375 69.0092 102.745C67.9235 102.01 66.5023 101.594 65.3515 100.914C64.0676 100.155 62.84 99.2867 61.6362 98.4121C59.2863 96.7045 56.9718 94.9646 54.5562 93.3463C51.8651 91.5431 49.0761 89.8774 46.3391 88.142C44.0162 86.6698 41.6649 85.0579 39.1799 83.8541C37.8255 83.198 36.4679 82.4207 35.108 81.7362C34.6529 81.5073 30.0345 78.5994 30.0462 78.5901C30.3014 78.3988 32.6255 79.4873 32.9849 79.634C34.0348 80.0617 35.0388 80.5729 36.0482 81.083C35.4941 79.9933 35.0556 78.848 34.8169 77.643C34.7431 77.2709 34.1522 74.563 34.4546 74.3358C34.6056 74.2222 36.079 79.0677 36.1545 79.5331C36.2158 79.9116 36.2068 80.4564 36.331 80.8146C36.5315 81.3936 36.5214 81.2186 36.9632 81.5449C37.7729 82.1425 38.8476 82.5158 39.724 83.0148C40.1965 83.278 41.6596 84.3212 42.5408 84.6186C45.2072 85.9099 47.9099 87.8968 50.4434 89.5464C49.7785 88.3002 49.2725 86.9973 48.9035 85.6317C48.8157 85.3077 47.8688 82.3998 48.0986 82.2271C48.3571 82.0324 50.1613 86.4745 50.2682 86.8947C50.4668 87.676 50.508 88.5448 50.7567 89.3053C51.0293 90.1393 51.8808 90.4349 52.648 90.9212C55.4711 92.7099 58.1977 94.6104 60.8783 96.5985C63.8037 91.4104 60.4308 85.146 57.5885 80.7932C55.5391 77.6558 52.7811 74.9664 49.8684 72.6184C45.9814 69.4845 41.5342 66.9812 37.0925 64.6911C31.9169 62.0232 26.3231 60.3696 20.5076 59.6062C17.466 59.2063 14.3543 59.2179 11.282 59.346C9.78116 59.408 8.34057 59.6062 6.9023 60.0949C6.25405 60.3151 5.62754 60.5927 5.01701 60.9034C4.55313 61.1393 3.43099 61.3885 3.16426 61.7404C0.968764 64.5903 -0.154415 67.4298 0.0171077 71.0106C0.179272 74.4001 1.25281 77.7914 2.70974 80.8152C4.33226 84.1816 6.41901 87.2372 9.1482 89.802C11.2304 91.7588 13.5583 93.4616 15.8709 95.1425C24.096 101.12 34.5241 106.319 45.177 104.983C48.6254 104.551 51.9052 103.349 54.9701 101.714C55.6925 101.329 56.4104 100.94 57.0922 100.485C57.5519 100.179 58.7806 98.7975 59.2427 98.7471C59.8768 98.6787 61.2416 99.9637 61.8362 100.355C66.3547 103.329 70.7547 106.465 75.0622 109.727C79.6458 113.198 84.0039 116.905 88.2342 120.786C90.0331 122.437 91.821 124.092 93.5676 125.798C93.9744 126.195 94.9689 127.657 95.7065 127.723C96.1727 127.765 96.4871 127.367 96.4208 126.937C96.3052 126.189 94.7265 125.07 94.2023 124.531Z" fill="#FACFDC"/>
<path fill-rule="evenodd" clip-rule="evenodd" d="M388.364 104.132C386.382 103.7 384.192 103.733 382.173 103.769C371.342 103.916 360.707 109.029 353.785 117.199C347.893 124.155 346.272 132.802 345.108 141.544C344.993 142.412 344.944 143.274 344.879 144.144C344.865 144.331 344.844 144.497 344.821 144.654C344.364 145.062 344.123 145.538 344.394 146.061C343.386 148.262 342.533 150.518 341.8 152.846C339.646 159.697 337.454 166.678 338.804 173.882C339.12 169.917 339.783 165.864 340.577 161.964C340.622 161.74 340.672 161.518 340.723 161.297C340.729 161.274 340.733 161.25 340.738 161.227C341.019 160.033 341.384 158.875 341.828 157.735C341.833 157.722 341.838 157.71 341.842 157.698C341.901 157.547 341.963 157.398 342.025 157.249C342.152 156.94 342.283 156.632 342.421 156.325C342.468 156.22 342.513 156.115 342.557 156.009C343.203 154.429 343.475 152.648 344.055 151.014C344.193 150.642 344.338 150.272 344.49 149.903C344.499 149.882 344.508 149.86 344.517 149.839C344.927 148.847 345.38 147.868 345.86 146.899C346.12 146.704 346.259 146.22 346.484 145.78C346.53 145.693 346.893 145.115 347.001 144.782C347.284 144.237 347.564 143.693 347.849 143.149C347.841 143.153 347.832 143.156 347.823 143.159C348.107 142.637 348.393 142.118 348.676 141.6C348.738 141.487 348.801 141.373 348.864 141.259C348.965 141.077 349.067 140.896 349.168 140.715C350.117 139.022 351.123 137.363 352.167 135.725C352.54 135.14 353.431 134.301 353.602 133.645C353.608 133.62 353.609 133.598 353.613 133.574C355.88 130.399 358.489 127.471 361.619 125.151C361.241 125.559 360.437 126.942 360.224 127.217C359.573 128.055 358.867 128.836 358.159 129.627C356.889 131.043 355.649 132.503 354.548 134.048C352.533 136.873 350.796 139.846 349.153 142.879C349.138 142.896 349.12 142.913 349.106 142.932C348.28 143.946 347.76 145.48 347.166 146.641C349.518 145.555 352.119 144.847 354.532 143.883C356.94 142.921 359.281 141.85 361.542 140.593C364.546 138.921 367.664 137.035 370.502 134.899C373.756 132.887 376.49 130.117 378.903 127.21C381.758 123.771 384.375 120.302 385.993 116.126C386.788 114.074 387.413 111.934 387.784 109.769C387.8 109.675 387.821 109.573 387.843 109.467C388.223 108.719 388.562 107.955 388.847 107.173C389.298 105.932 390.366 104.568 388.364 104.132Z" fill="#F42A66"/>
<path fill-rule="evenodd" clip-rule="evenodd" d="M52.426 118.662C51.8052 117.992 51.1077 117.387 50.2886 116.955C50.0815 116.846 48.5391 116.116 48.4387 116.276C48.2047 116.649 52.2394 118.448 52.426 118.662ZM59.7391 114.183C59.7338 114.211 60.2686 115.116 60.4145 115.394C60.7243 115.986 61.0102 116.589 61.2794 117.193C60.8812 116.126 60.4714 115.136 59.7391 114.183ZM22.3396 121.549C21.8245 121.714 21.2052 121.062 21.8733 120.901C22.4139 120.773 22.3874 120.743 22.6301 120.308C22.8272 119.955 22.9486 119.525 23.1216 119.156C23.4885 118.371 23.9047 117.622 24.4155 116.921C25.5103 115.417 26.8442 114.122 28.3403 113.03C30.9512 111.125 33.8787 109.383 36.9842 108.509C41.9218 107.118 47.5416 107.032 52.487 107.996C55.5501 108.593 58.3488 109.632 60.3825 112.091C61.3991 113.32 62.1971 114.76 62.5459 116.345C62.6371 116.759 62.6197 117.22 62.7336 117.626C62.9091 118.25 62.8318 118.084 63.5636 118.205C64.3622 118.338 65.1603 118.473 65.9583 118.611C68.0478 118.971 70.1496 119.354 72.1857 119.939C72.8558 120.131 73.5109 120.366 74.1514 120.639C74.6356 120.846 76.5635 121.494 76.7978 122.121C77.1878 123.165 75.8811 122.692 75.4749 122.465C75.1191 122.266 74.7541 122.08 74.3839 121.909C73.451 121.479 72.4792 121.145 71.4853 120.88C70.4111 120.594 69.3155 120.38 68.2234 120.166C67.2056 119.966 66.1838 119.785 65.1603 119.611C64.5918 119.515 64.0234 119.421 63.4543 119.328C63.2596 119.295 62.9173 119.128 62.9429 119.38C61.7467 119.15 60.4534 119.183 59.2352 119.12C57.7431 119.042 56.2453 118.978 54.748 119.025C53.6681 119.058 52.5876 119.129 51.5129 119.274C50.8851 119.358 50.2674 119.482 49.6515 119.638C49.3131 119.725 47.979 119.907 47.7946 120.201C47.8738 120.075 49.3462 120.198 49.5337 120.19C50.2833 120.162 51.0269 120.088 51.7738 120.005C53.1601 119.851 54.5463 119.77 55.9366 119.782C55.9314 120.025 54.9817 120.459 54.7498 120.62C54.2301 120.982 53.732 121.376 53.2676 121.809C52.4498 122.571 51.4699 123.515 50.9043 124.419C51.0711 124.152 51.8936 123.806 52.1854 123.603C52.6532 123.277 53.1118 122.929 53.5454 122.558C53.9453 122.215 54.3191 121.844 54.6864 121.465C55.0537 121.087 55.5519 120.299 56.0349 120.047C56.0639 120.031 56.2743 120.197 56.3935 120.141C56.5144 120.084 56.6643 119.8 56.6946 119.789C57.1439 119.616 57.9971 119.831 58.4697 119.853C59.6943 119.909 60.9184 119.983 62.1419 120.05C62.5215 120.071 62.8435 119.984 62.987 120.263C63.1393 120.561 62.8597 121.343 62.7801 121.667C62.4848 122.87 61.9611 123.949 61.1358 124.882C59.5909 126.628 57.685 127.792 55.5327 128.571C47.2883 131.553 38.5172 132.748 30.2752 129.645C26.863 128.36 21.7243 126.065 22.3396 121.549Z" fill="#FF7FA6"/>
<g opacity="0.6">
<path opacity="0.6" fill-rule="evenodd" clip-rule="evenodd" d="M399.832 262.07C405.441 299.932 269.418 324.629 152.34 307.394C35.2622 290.159 -18.4476 222.855 37.4201 186.993C93.288 151.13 394.223 224.208 399.832 262.07Z" fill="#DDE3E9"/>
</g>
<path d="M160.531 13.9106H77.4144C74.8464 13.9106 72.7646 15.9866 72.7646 18.5475V184.315C72.7646 186.876 74.8464 188.952 77.4144 188.952H160.531C163.099 188.952 165.181 186.876 165.181 184.315V18.5475C165.181 15.9866 163.099 13.9106 160.531 13.9106Z" fill="#F2F2F2"/>
<path fill-rule="evenodd" clip-rule="evenodd" d="M118.682 177.939C123.497 177.939 127.401 174.047 127.401 169.245C127.401 164.444 123.497 160.551 118.682 160.551C113.867 160.551 109.964 164.444 109.964 169.245C109.964 174.047 113.867 177.939 118.682 177.939Z" fill="white"/>
<path fill-rule="evenodd" clip-rule="evenodd" d="M111.126 25.5026C111.768 25.5026 112.289 24.9837 112.289 24.3434C112.289 23.7032 111.768 23.1842 111.126 23.1842C110.484 23.1842 109.964 23.7032 109.964 24.3434C109.964 24.9837 110.484 25.5026 111.126 25.5026Z" fill="white"/>
<path d="M126.238 23.1842H116.357C115.715 23.1842 115.195 23.7032 115.195 24.3434C115.195 24.9836 115.715 25.5026 116.357 25.5026H126.238C126.88 25.5026 127.401 24.9836 127.401 24.3434C127.401 23.7032 126.88 23.1842 126.238 23.1842Z" fill="white"/>
<path d="M154.719 30.1395H83.2268C81.9428 30.1395 80.9019 31.1775 80.9019 32.458V59.1199C80.9019 60.4003 81.9428 61.4383 83.2268 61.4383H154.719C156.003 61.4383 157.044 60.4003 157.044 59.1199V32.458C157.044 31.1775 156.003 30.1395 154.719 30.1395Z" fill="white"/>
<path d="M144.257 39.5292H105.314C104.351 39.5292 103.57 40.3077 103.57 41.268V42.4852C103.57 43.4455 104.351 44.224 105.314 44.224H144.257C145.22 44.224 146 43.4455 146 42.4852V41.268C146 40.3077 145.22 39.5292 144.257 39.5292Z" fill="#DDE3E9"/>
<path d="M130.307 47.3539H105.314C104.351 47.3539 103.57 48.1324 103.57 49.0927V50.3099C103.57 51.2702 104.351 52.0487 105.314 52.0487H130.307C131.27 52.0487 132.051 51.2702 132.051 50.3099V49.0927C132.051 48.1324 131.27 47.3539 130.307 47.3539Z" fill="#DDE3E9"/>
<path fill-rule="evenodd" clip-rule="evenodd" d="M93.1078 52.7442C96.9596 52.7442 100.083 49.6299 100.083 45.7889C100.083 41.9478 96.9596 38.8336 93.1078 38.8336C89.256 38.8336 86.133 41.9478 86.133 45.7889C86.133 49.6299 89.256 52.7442 93.1078 52.7442Z" fill="#C5CFD6"/>
<path d="M154.719 66.0752H83.2268C81.9428 66.0752 80.9019 67.1132 80.9019 68.3936V88.1002C80.9019 89.3807 81.9428 90.4187 83.2268 90.4187H154.719C156.003 90.4187 157.044 89.3807 157.044 88.1002V68.3936C157.044 67.1132 156.003 66.0752 154.719 66.0752Z" fill="white"/>
<path d="M144.257 73.3782H105.314C104.351 73.3782 103.57 74.1567 103.57 75.117V75.2909C103.57 76.2512 104.351 77.0297 105.314 77.0297H144.257C145.22 77.0297 146 76.2512 146 75.2909V75.117C146 74.1567 145.22 73.3782 144.257 73.3782Z" fill="#DDE3E9"/>
<path d="M130.307 79.4641H105.314C104.351 79.4641 103.57 80.2426 103.57 81.2029V81.3768C103.57 82.3371 104.351 83.1156 105.314 83.1156H130.307C131.27 83.1156 132.051 82.3371 132.051 81.3768V81.2029C132.051 80.2426 131.27 79.4641 130.307 79.4641Z" fill="#DDE3E9"/>
<path fill-rule="evenodd" clip-rule="evenodd" d="M93.1078 85.2022C96.9596 85.2022 100.083 82.088 100.083 78.2469C100.083 74.4059 96.9596 71.2916 93.1078 71.2916C89.256 71.2916 86.133 74.4059 86.133 78.2469C86.133 82.088 89.256 85.2022 93.1078 85.2022Z" fill="#C5CFD6"/>
<path d="M154.719 95.0555H83.2268C81.9428 95.0555 80.9019 96.0935 80.9019 97.374V117.081C80.9019 118.361 81.9428 119.399 83.2268 119.399H154.719C156.003 119.399 157.044 118.361 157.044 117.081V97.374C157.044 96.0935 156.003 95.0555 154.719 95.0555Z" fill="white"/>
<path d="M144.257 102.359H105.314C104.351 102.359 103.57 103.137 103.57 104.097V104.271C103.57 105.232 104.351 106.01 105.314 106.01H144.257C145.22 106.01 146 105.232 146 104.271V104.097C146 103.137 145.22 102.359 144.257 102.359Z" fill="#DDE3E9"/>
<path d="M130.307 108.444H105.314C104.351 108.444 103.57 109.223 103.57 110.183V110.357C103.57 111.317 104.351 112.096 105.314 112.096H130.307C131.27 112.096 132.051 111.317 132.051 110.357V110.183C132.051 109.223 131.27 108.444 130.307 108.444Z" fill="#DDE3E9"/>
<path fill-rule="evenodd" clip-rule="evenodd" d="M93.1078 114.183C96.9596 114.183 100.083 111.068 100.083 107.227C100.083 103.386 96.9596 100.272 93.1078 100.272C89.256 100.272 86.133 103.386 86.133 107.227C86.133 111.068 89.256 114.183 93.1078 114.183Z" fill="#AFB9C5"/>
<path d="M154.719 124.036H83.2268C81.9428 124.036 80.9019 125.074 80.9019 126.354V146.061C80.9019 147.341 81.9428 148.379 83.2268 148.379H154.719C156.003 148.379 157.044 147.341 157.044 146.061V126.354C157.044 125.074 156.003 124.036 154.719 124.036Z" fill="white"/>
<path d="M144.257 131.339H105.314C104.351 131.339 103.57 132.117 103.57 133.078V133.251C103.57 134.212 104.351 134.99 105.314 134.99H144.257C145.22 134.99 146 134.212 146 133.251V133.078C146 132.117 145.22 131.339 144.257 131.339Z" fill="#DDE3E9"/>
<path d="M130.307 137.425H105.314C104.351 137.425 103.57 138.203 103.57 139.164V139.337C103.57 140.298 104.351 141.076 105.314 141.076H130.307C131.27 141.076 132.051 140.298 132.051 139.337V139.164C132.051 138.203 131.27 137.425 130.307 137.425Z" fill="#DDE3E9"/>
<path fill-rule="evenodd" clip-rule="evenodd" d="M93.1078 143.163C96.9596 143.163 100.083 140.049 100.083 136.208C100.083 132.367 96.9596 129.252 93.1078 129.252C89.256 129.252 86.133 132.367 86.133 136.208C86.133 140.049 89.256 143.163 93.1078 143.163Z" fill="#C5CFD6"/>
<path fill-rule="evenodd" clip-rule="evenodd" d="M90.283 155.334C89.5129 155.334 88.7451 155.35 87.9761 155.39C87.3896 155.42 86.4939 155.299 85.9981 155.664C85.4826 156.042 85.518 156.817 85.5988 157.364C86.0243 160.257 87.063 162.822 89.2362 164.872C92.5824 168.028 96.4179 169.632 100.957 170.346C104.145 170.848 107.089 170.152 109.436 167.89C111.151 171.064 112.452 174.577 113.105 178.122C113.427 179.871 113.525 181.599 113.468 183.38C113.432 184.521 113.369 185.659 113.246 186.795C113.193 187.288 112.941 188.035 113.134 188.501C113.362 189.048 114.128 189.102 114.472 188.635C114.759 188.246 114.707 187.483 114.765 187.023C114.863 186.259 114.953 185.495 115.017 184.727C115.123 183.485 115.2 182.24 115.195 180.992C115.181 178.191 114.557 175.379 113.702 172.72C112.063 167.617 109.404 163.083 105.268 159.526C102.724 157.338 99.8135 156.453 96.5115 155.977C94.4551 155.68 92.3656 155.334 90.283 155.334Z" fill="#FF7FA6"/>
<path fill-rule="evenodd" clip-rule="evenodd" d="M102.158 175.621C93.8471 175.621 88.2498 182.3 85.6035 189.243C84.6055 191.859 84.3718 194.733 83.9871 197.48C83.8638 198.362 83.9098 199.706 83.5506 200.491C83.4204 200.776 83.1216 200.878 83.2646 201.267C83.3512 201.501 83.5203 201.646 83.7755 201.692C84.298 201.788 85.0374 201.22 85.4855 200.996C89.2031 199.137 91.6454 196.262 93.6379 192.745C94.8736 190.565 96.1267 188.302 96.8603 185.909C97.3084 184.446 97.5694 182.907 97.7228 181.39C97.7833 180.793 97.8414 180.181 97.8379 179.581C97.8344 178.984 97.556 178.669 97.3561 178.15C100.129 177.103 103.26 176.818 106.069 177.903C108.667 178.906 110.825 180.845 112.033 183.281C112.347 183.914 112.59 184.581 112.766 185.263C112.881 185.709 112.887 186.288 113.101 186.691C113.62 187.67 114.711 187.016 114.607 186.105C114.314 183.566 112.858 181.016 110.995 179.251C108.647 177.024 105.464 175.621 102.158 175.621Z" fill="#FF7FA6"/>
<path d="M198.893 28.9803H115.776C113.208 28.9803 111.126 31.0563 111.126 33.6172V199.385C111.126 201.946 113.208 204.021 115.776 204.021H198.893C201.461 204.021 203.542 201.946 203.542 199.385V33.6172C203.542 31.0563 201.461 28.9803 198.893 28.9803Z" fill="#DDE3E9"/>
<path fill-rule="evenodd" clip-rule="evenodd" d="M157.044 193.009C161.859 193.009 165.762 189.116 165.762 184.315C165.762 179.513 161.859 175.621 157.044 175.621C152.229 175.621 148.325 179.513 148.325 184.315C148.325 189.116 152.229 193.009 157.044 193.009Z" fill="white"/>
<path fill-rule="evenodd" clip-rule="evenodd" d="M149.488 40.5725C150.13 40.5725 150.65 40.0537 150.65 39.4132C150.65 38.7728 150.13 38.254 149.488 38.254C148.845 38.254 148.325 38.7728 148.325 39.4132C148.325 40.0537 148.845 40.5725 149.488 40.5725Z" fill="white"/>
<path d="M164.6 38.254H154.719C154.077 38.254 153.556 38.773 153.556 39.4132C153.556 40.0535 154.077 40.5725 154.719 40.5725H164.6C165.242 40.5725 165.762 40.0535 165.762 39.4132C165.762 38.773 165.242 38.254 164.6 38.254Z" fill="white"/>
<path d="M193.08 45.2092H121.588C120.304 45.2092 119.263 46.2472 119.263 47.5277V74.1896C119.263 75.47 120.304 76.508 121.588 76.508H193.08C194.364 76.508 195.405 75.47 195.405 74.1896V47.5277C195.405 46.2472 194.364 45.2092 193.08 45.2092Z" fill="white"/>
<path d="M165.181 54.5989H126.238C125.275 54.5989 124.495 55.3774 124.495 56.3377V57.5549C124.495 58.5152 125.275 59.2937 126.238 59.2937H165.181C166.144 59.2937 166.925 58.5152 166.925 57.5549V56.3377C166.925 55.3774 166.144 54.5989 165.181 54.5989Z" fill="#DDE3E9"/>
<path d="M151.231 62.4236H126.238C125.275 62.4236 124.495 63.2021 124.495 64.1624V65.3796C124.495 66.3399 125.275 67.1184 126.238 67.1184H151.231C152.194 67.1184 152.975 66.3399 152.975 65.3796V64.1624C152.975 63.2021 152.194 62.4236 151.231 62.4236Z" fill="#DDE3E9"/>
<path fill-rule="evenodd" clip-rule="evenodd" d="M187.268 64.9159C189.515 64.9159 191.337 63.0994 191.337 60.8586C191.337 58.6179 189.515 56.8014 187.268 56.8014C185.021 56.8014 183.199 58.6179 183.199 60.8586C183.199 63.0994 185.021 64.9159 187.268 64.9159Z" fill="#DDE3E9"/>
<path fill-rule="evenodd" clip-rule="evenodd" d="M187.268 62.5975C188.231 62.5975 189.012 61.8191 189.012 60.8587C189.012 59.8983 188.231 59.1199 187.268 59.1199C186.305 59.1199 185.524 59.8983 185.524 60.8587C185.524 61.8191 186.305 62.5975 187.268 62.5975Z" fill="#F2F2F2"/>
<path d="M193.08 81.1449H121.588C120.304 81.1449 119.263 82.1829 119.263 83.4633V103.17C119.263 104.45 120.304 105.488 121.588 105.488H193.08C194.364 105.488 195.405 104.45 195.405 103.17V83.4633C195.405 82.1829 194.364 81.1449 193.08 81.1449Z" fill="white"/>
<path d="M182.618 88.448H143.675C142.712 88.448 141.932 89.2265 141.932 90.1868V90.3607C141.932 91.321 142.712 92.0995 143.675 92.0995H182.618C183.581 92.0995 184.362 91.321 184.362 90.3607V90.1868C184.362 89.2265 183.581 88.448 182.618 88.448Z" fill="#DDE3E9"/>
<path d="M168.668 94.5338H143.675C142.712 94.5338 141.932 95.3123 141.932 96.2726V96.4465C141.932 97.4068 142.712 98.1853 143.675 98.1853H168.668C169.631 98.1853 170.412 97.4068 170.412 96.4465V96.2726C170.412 95.3123 169.631 94.5338 168.668 94.5338Z" fill="#DDE3E9"/>
<path fill-rule="evenodd" clip-rule="evenodd" d="M131.469 100.272C135.321 100.272 138.444 97.1577 138.444 93.3166C138.444 89.4756 135.321 86.3613 131.469 86.3613C127.617 86.3613 124.495 89.4756 124.495 93.3166C124.495 97.1577 127.617 100.272 131.469 100.272Z" fill="#C5CFD6"/>
<path d="M193.08 110.125H121.588C120.304 110.125 119.263 111.163 119.263 112.444V132.15C119.263 133.431 120.304 134.469 121.588 134.469H193.08C194.364 134.469 195.405 133.431 195.405 132.15V112.444C195.405 111.163 194.364 110.125 193.08 110.125Z" fill="white"/>
<path d="M165.181 117.428H126.238C125.275 117.428 124.495 118.207 124.495 119.167V119.341C124.495 120.301 125.275 121.08 126.238 121.08H165.181C166.144 121.08 166.925 120.301 166.925 119.341V119.167C166.925 118.207 166.144 117.428 165.181 117.428Z" fill="#DDE3E9"/>
<path d="M151.231 123.514H126.238C125.275 123.514 124.495 124.293 124.495 125.253V125.427C124.495 126.387 125.275 127.166 126.238 127.166H151.231C152.194 127.166 152.975 126.387 152.975 125.427V125.253C152.975 124.293 152.194 123.514 151.231 123.514Z" fill="#AFB9C5"/>
<path fill-rule="evenodd" clip-rule="evenodd" d="M187.268 126.354C189.515 126.354 191.337 124.538 191.337 122.297C191.337 120.056 189.515 118.24 187.268 118.24C185.021 118.24 183.199 120.056 183.199 122.297C183.199 124.538 185.021 126.354 187.268 126.354Z" fill="#DDE3E9"/>
<path fill-rule="evenodd" clip-rule="evenodd" d="M187.268 124.036C188.231 124.036 189.012 123.257 189.012 122.297C189.012 121.337 188.231 120.558 187.268 120.558C186.305 120.558 185.524 121.337 185.524 122.297C185.524 123.257 186.305 124.036 187.268 124.036Z" fill="#F2F2F2"/>
<path d="M193.08 139.106H121.588C120.304 139.106 119.263 140.144 119.263 141.424V161.131C119.263 162.411 120.304 163.449 121.588 163.449H193.08C194.364 163.449 195.405 162.411 195.405 161.131V141.424C195.405 140.144 194.364 139.106 193.08 139.106Z" fill="white"/>
<path d="M182.618 146.409H143.675C142.712 146.409 141.932 147.187 141.932 148.148V148.321C141.932 149.282 142.712 150.06 143.675 150.06H182.618C183.581 150.06 184.362 149.282 184.362 148.321V148.148C184.362 147.187 183.581 146.409 182.618 146.409Z" fill="#DDE3E9"/>
<path d="M168.668 152.494H143.675C142.712 152.494 141.932 153.273 141.932 154.233V154.407C141.932 155.367 142.712 156.146 143.675 156.146H168.668C169.631 156.146 170.412 155.367 170.412 154.407V154.233C170.412 153.273 169.631 152.494 168.668 152.494Z" fill="#DDE3E9"/>
<path fill-rule="evenodd" clip-rule="evenodd" d="M131.469 158.233C135.321 158.233 138.444 155.118 138.444 151.277C138.444 147.436 135.321 144.322 131.469 144.322C127.617 144.322 124.495 147.436 124.495 151.277C124.495 155.118 127.617 158.233 131.469 158.233Z" fill="#C5CFD6"/>
<path d="M339.552 43.4705H154.138C151.569 43.4705 149.488 45.5464 149.488 48.1073V239.377C149.488 241.938 151.569 244.014 154.138 244.014H339.552C342.12 244.014 344.201 241.938 344.201 239.377V48.1073C344.201 45.5464 342.12 43.4705 339.552 43.4705Z" fill="#F2F2F2"/>
<path d="M330.252 68.3937H298.865C296.297 68.3937 294.215 70.4697 294.215 73.0305V110.705C294.215 113.266 296.297 115.342 298.865 115.342H330.252C332.82 115.342 334.902 113.266 334.902 110.705V73.0305C334.902 70.4697 332.82 68.3937 330.252 68.3937Z" fill="white"/>
<path fill-rule="evenodd" clip-rule="evenodd" d="M314.558 95.6351C319.695 95.6351 323.858 91.4833 323.858 86.3613C323.858 81.2394 319.695 77.0876 314.558 77.0876C309.422 77.0876 305.259 81.2394 305.259 86.3613C305.259 91.4833 309.422 95.6351 314.558 95.6351Z" fill="#DDE3E9"/>
<path d="M327.346 97.9535H301.771C300.808 97.9535 300.028 98.732 300.028 99.6923C300.028 100.653 300.808 101.431 301.771 101.431H327.346C328.309 101.431 329.089 100.653 329.089 99.6923C329.089 98.732 328.309 97.9535 327.346 97.9535Z" fill="#DDE3E9"/>
<path d="M322.696 103.75H306.421C305.458 103.75 304.677 104.528 304.677 105.488C304.677 106.449 305.458 107.227 306.421 107.227H322.696C323.659 107.227 324.439 106.449 324.439 105.488C324.439 104.528 323.659 103.75 322.696 103.75Z" fill="#DDE3E9"/>
<path d="M149.488 48.1073C149.488 45.5466 151.57 43.4705 154.138 43.4705H339.552C342.119 43.4705 344.201 45.5466 344.201 48.1073V59.1198H149.488V48.1073Z" fill="#C5CFD6"/>
<path fill-rule="evenodd" clip-rule="evenodd" d="M157.044 53.9035C158.328 53.9035 159.369 52.8654 159.369 51.585C159.369 50.3047 158.328 49.2666 157.044 49.2666C155.76 49.2666 154.719 50.3047 154.719 51.585C154.719 52.8654 155.76 53.9035 157.044 53.9035Z" fill="#F2F2F2"/>
<path fill-rule="evenodd" clip-rule="evenodd" d="M164.019 53.9035C165.302 53.9035 166.343 52.8654 166.343 51.585C166.343 50.3047 165.302 49.2666 164.019 49.2666C162.735 49.2666 161.694 50.3047 161.694 51.585C161.694 52.8654 162.735 53.9035 164.019 53.9035Z" fill="#F2F2F2"/>
<path fill-rule="evenodd" clip-rule="evenodd" d="M170.993 53.9035C172.277 53.9035 173.318 52.8654 173.318 51.585C173.318 50.3047 172.277 49.2666 170.993 49.2666C169.709 49.2666 168.668 50.3047 168.668 51.585C168.668 52.8654 169.709 53.9035 170.993 53.9035Z" fill="#F2F2F2"/>
<path d="M330.252 119.979H298.865C296.297 119.979 294.215 122.055 294.215 124.615V227.785C294.215 230.346 296.297 232.422 298.865 232.422H330.252C332.82 232.422 334.902 230.346 334.902 227.785V124.615C334.902 122.055 332.82 119.979 330.252 119.979Z" fill="white"/>
<path d="M322.114 130.411H307.002C305.718 130.411 304.677 131.449 304.677 132.73V143.163C304.677 144.443 305.718 145.481 307.002 145.481H322.114C323.399 145.481 324.439 144.443 324.439 143.163V132.73C324.439 131.449 323.399 130.411 322.114 130.411Z" fill="#DDE3E9"/>
<path d="M322.114 150.118H307.002C305.718 150.118 304.677 151.156 304.677 152.436V162.29C304.677 163.57 305.718 164.608 307.002 164.608H322.114C323.399 164.608 324.439 163.57 324.439 162.29V152.436C324.439 151.156 323.399 150.118 322.114 150.118Z" fill="#AFB9C5"/>
<path d="M322.114 169.245H307.002C305.718 169.245 304.677 170.283 304.677 171.564V181.417C304.677 182.697 305.718 183.735 307.002 183.735H322.114C323.399 183.735 324.439 182.697 324.439 181.417V171.564C324.439 170.283 323.399 169.245 322.114 169.245Z" fill="#DDE3E9"/>
<path d="M322.114 207.499H307.002C305.718 207.499 304.677 208.537 304.677 209.818V219.671C304.677 220.951 305.718 221.989 307.002 221.989H322.114C323.399 221.989 324.439 220.951 324.439 219.671V209.818C324.439 208.537 323.399 207.499 322.114 207.499Z" fill="#DDE3E9"/>
<path d="M322.114 188.372H307.002C305.718 188.372 304.677 189.41 304.677 190.691V200.544C304.677 201.824 305.718 202.862 307.002 202.862H322.114C323.399 202.862 324.439 201.824 324.439 200.544V190.691C324.439 189.41 323.399 188.372 322.114 188.372Z" fill="#C5CFD6"/>
<path d="M287.24 68.9731H161.112C159.828 68.9731 158.787 70.0111 158.787 71.2916V93.8962C158.787 95.1767 159.828 96.2146 161.112 96.2146H287.24C288.524 96.2146 289.565 95.1767 289.565 93.8962V71.2916C289.565 70.0111 288.524 68.9731 287.24 68.9731Z" fill="white"/>
<path d="M259.341 77.1456H165.762C164.799 77.1456 164.018 77.9241 164.018 78.8844V79.493C164.018 80.4534 164.799 81.2318 165.762 81.2318H259.341C260.304 81.2318 261.085 80.4534 261.085 79.493V78.8844C261.085 77.9241 260.304 77.1456 259.341 77.1456Z" fill="#DDE3E9"/>
<path d="M227.429 83.9559H165.762C164.799 83.9559 164.018 84.7344 164.018 85.6948V86.3033C164.018 87.2637 164.799 88.0422 165.762 88.0422H227.429C228.392 88.0422 229.173 87.2637 229.173 86.3033V85.6948C229.173 84.7344 228.392 83.9559 227.429 83.9559Z" fill="#DDE3E9"/>
<path fill-rule="evenodd" clip-rule="evenodd" d="M275.589 86.6511C277.836 86.6511 279.658 84.8346 279.658 82.5939C279.658 80.3531 277.836 78.5366 275.589 78.5366C273.342 78.5366 271.52 80.3531 271.52 82.5939C271.52 84.8346 273.342 86.6511 275.589 86.6511Z" fill="#DDE3E9"/>
<path fill-rule="evenodd" clip-rule="evenodd" d="M275.589 84.3327C276.552 84.3327 277.333 83.5543 277.333 82.5939C277.333 81.6335 276.552 80.8551 275.589 80.8551C274.626 80.8551 273.845 81.6335 273.845 82.5939C273.845 83.5543 274.626 84.3327 275.589 84.3327Z" fill="#F2F2F2"/>
<path d="M287.24 100.851H161.112C159.828 100.851 158.787 101.889 158.787 103.17V121.138C158.787 122.418 159.828 123.456 161.112 123.456H287.24C288.524 123.456 289.565 122.418 289.565 121.138V103.17C289.565 101.889 288.524 100.851 287.24 100.851Z" fill="white"/>
<path d="M259.385 107.633H165.719C164.78 107.633 164.018 108.392 164.018 109.328C164.018 110.264 164.78 111.024 165.719 111.024H259.385C260.324 111.024 261.085 110.264 261.085 109.328C261.085 108.392 260.324 107.633 259.385 107.633Z" fill="#DDE3E9"/>
<path d="M227.473 113.284H165.719C164.78 113.284 164.018 114.043 164.018 114.979C164.018 115.916 164.78 116.675 165.719 116.675H227.473C228.411 116.675 229.173 115.916 229.173 114.979C229.173 114.043 228.411 113.284 227.473 113.284Z" fill="#DDE3E9"/>
<path fill-rule="evenodd" clip-rule="evenodd" d="M275.589 116.211C277.836 116.211 279.658 114.395 279.658 112.154C279.658 109.913 277.836 108.097 275.589 108.097C273.342 108.097 271.52 109.913 271.52 112.154C271.52 114.395 273.342 116.211 275.589 116.211Z" fill="#DDE3E9"/>
<path fill-rule="evenodd" clip-rule="evenodd" d="M275.589 113.893C276.552 113.893 277.333 113.114 277.333 112.154C277.333 111.193 276.552 110.415 275.589 110.415C274.626 110.415 273.845 111.193 273.845 112.154C273.845 113.114 274.626 113.893 275.589 113.893Z" fill="#F2F2F2"/>
<path d="M287.24 128.093H161.112C159.828 128.093 158.787 129.131 158.787 130.411V148.379C158.787 149.66 159.828 150.698 161.112 150.698H287.24C288.524 150.698 289.565 149.66 289.565 148.379V130.411C289.565 129.131 288.524 128.093 287.24 128.093Z" fill="white"/>
<path d="M259.385 134.874H165.719C164.78 134.874 164.018 135.633 164.018 136.57C164.018 137.506 164.78 138.265 165.719 138.265H259.385C260.324 138.265 261.085 137.506 261.085 136.57C261.085 135.633 260.324 134.874 259.385 134.874Z" fill="#DDE3E9"/>
<path d="M227.473 140.526H165.719C164.78 140.526 164.018 141.285 164.018 142.221C164.018 143.157 164.78 143.916 165.719 143.916H227.473C228.411 143.916 229.173 143.157 229.173 142.221C229.173 141.285 228.411 140.526 227.473 140.526Z" fill="#DDE3E9"/>
<path fill-rule="evenodd" clip-rule="evenodd" d="M275.589 143.453C277.836 143.453 279.658 141.636 279.658 139.395C279.658 137.154 277.836 135.338 275.589 135.338C273.342 135.338 271.52 137.154 271.52 139.395C271.52 141.636 273.342 143.453 275.589 143.453Z" fill="#DDE3E9"/>
<path fill-rule="evenodd" clip-rule="evenodd" d="M275.589 141.134C276.552 141.134 277.333 140.356 277.333 139.395C277.333 138.435 276.552 137.656 275.589 137.656C274.626 137.656 273.845 138.435 273.845 139.395C273.845 140.356 274.626 141.134 275.589 141.134Z" fill="#AFB9C5"/>
<path d="M287.24 209.818H161.112C159.828 209.818 158.787 210.856 158.787 212.136V230.104C158.787 231.384 159.828 232.422 161.112 232.422H287.24C288.524 232.422 289.565 231.384 289.565 230.104V212.136C289.565 210.856 288.524 209.818 287.24 209.818Z" fill="white"/>
<path d="M259.385 216.599H165.719C164.78 216.599 164.018 217.358 164.018 218.294C164.018 219.231 164.78 219.99 165.719 219.99H259.385C260.324 219.99 261.085 219.231 261.085 218.294C261.085 217.358 260.324 216.599 259.385 216.599Z" fill="#DDE3E9"/>
<path d="M227.473 222.25H165.719C164.78 222.25 164.018 223.009 164.018 223.945C164.018 224.882 164.78 225.641 165.719 225.641H227.473C228.411 225.641 229.173 224.882 229.173 223.945C229.173 223.009 228.411 222.25 227.473 222.25Z" fill="#DDE3E9"/>
<path fill-rule="evenodd" clip-rule="evenodd" d="M275.589 225.177C277.836 225.177 279.658 223.361 279.658 221.12C279.658 218.879 277.836 217.063 275.589 217.063C273.342 217.063 271.52 218.879 271.52 221.12C271.52 223.361 273.342 225.177 275.589 225.177Z" fill="#DDE3E9"/>
<path fill-rule="evenodd" clip-rule="evenodd" d="M275.589 222.859C276.552 222.859 277.333 222.08 277.333 221.12C277.333 220.16 276.552 219.381 275.589 219.381C274.626 219.381 273.845 220.16 273.845 221.12C273.845 222.08 274.626 222.859 275.589 222.859Z" fill="#F2F2F2"/>
<path d="M287.24 182.576H161.112C159.828 182.576 158.787 183.614 158.787 184.894V202.862C158.787 204.143 159.828 205.181 161.112 205.181H287.24C288.524 205.181 289.565 204.143 289.565 202.862V184.894C289.565 183.614 288.524 182.576 287.24 182.576Z" fill="white"/>
<path d="M259.385 189.357H165.719C164.78 189.357 164.018 190.116 164.018 191.053C164.018 191.989 164.78 192.748 165.719 192.748H259.385C260.324 192.748 261.085 191.989 261.085 191.053C261.085 190.116 260.324 189.357 259.385 189.357Z" fill="#DDE3E9"/>
<path d="M227.473 195.009H165.719C164.78 195.009 164.018 195.768 164.018 196.704C164.018 197.64 164.78 198.399 165.719 198.399H227.473C228.411 198.399 229.173 197.64 229.173 196.704C229.173 195.768 228.411 195.009 227.473 195.009Z" fill="#DDE3E9"/>
<path fill-rule="evenodd" clip-rule="evenodd" d="M275.589 197.936C277.836 197.936 279.658 196.119 279.658 193.878C279.658 191.638 277.836 189.821 275.589 189.821C273.342 189.821 271.52 191.638 271.52 193.878C271.52 196.119 273.342 197.936 275.589 197.936Z" fill="#DDE3E9"/>
<path fill-rule="evenodd" clip-rule="evenodd" d="M275.589 195.617C276.552 195.617 277.333 194.839 277.333 193.878C277.333 192.918 276.552 192.14 275.589 192.14C274.626 192.14 273.845 192.918 273.845 193.878C273.845 194.839 274.626 195.617 275.589 195.617Z" fill="#F2F2F2"/>
<path d="M287.24 155.334H161.112C159.828 155.334 158.787 156.372 158.787 157.653V175.621C158.787 176.901 159.828 177.939 161.112 177.939H287.24C288.524 177.939 289.565 176.901 289.565 175.621V157.653C289.565 156.372 288.524 155.334 287.24 155.334Z" fill="white"/>
<path d="M259.385 162.116H165.719C164.78 162.116 164.018 162.875 164.018 163.811C164.018 164.748 164.78 165.507 165.719 165.507H259.385C260.324 165.507 261.085 164.748 261.085 163.811C261.085 162.875 260.324 162.116 259.385 162.116Z" fill="#DDE3E9"/>
<path d="M227.473 167.767H165.719C164.78 167.767 164.018 168.526 164.018 169.462C164.018 170.399 164.78 171.158 165.719 171.158H227.473C228.411 171.158 229.173 170.399 229.173 169.462C229.173 168.526 228.411 167.767 227.473 167.767Z" fill="#DDE3E9"/>
<path fill-rule="evenodd" clip-rule="evenodd" d="M275.589 170.694C277.836 170.694 279.658 168.878 279.658 166.637C279.658 164.396 277.836 162.58 275.589 162.58C273.342 162.58 271.52 164.396 271.52 166.637C271.52 168.878 273.342 170.694 275.589 170.694Z" fill="#DDE3E9"/>
<path fill-rule="evenodd" clip-rule="evenodd" d="M275.589 168.376C276.552 168.376 277.333 167.597 277.333 166.637C277.333 165.676 276.552 164.898 275.589 164.898C274.626 164.898 273.845 165.676 273.845 166.637C273.845 167.597 274.626 168.376 275.589 168.376Z" fill="#F2F2F2"/>
<path fill-rule="evenodd" clip-rule="evenodd" d="M392.436 142.222C390.143 140.671 387.094 140.265 384.351 140.265C373.635 140.265 363.563 144.229 354.862 150.137C350.094 153.373 345.829 157.495 342.064 161.787C339.89 164.265 337.952 166.944 336.58 169.925C335.654 171.937 335.018 174.033 334.588 176.195C334.063 178.83 333.646 181.518 333.457 184.197C333.383 185.252 332.769 190.849 334.527 190.944C334.517 191.082 334.515 191.214 334.526 191.332C330.706 197.286 328.347 204.265 326.159 210.881C324.255 216.639 322.559 222.445 321.458 228.401C320.007 236.243 319.055 244.203 318.603 252.158C318.506 253.867 318.439 255.577 318.381 257.289C318.332 258.749 318.283 260.209 318.235 261.67C318.181 263.306 317.892 265.19 318.153 266.816C318.381 268.233 319.61 268.018 319.665 266.609C319.73 264.906 319.719 263.2 319.794 261.497C319.894 259.236 319.996 256.975 320.107 254.714C320.879 239.012 323.777 223.54 329.125 208.707C331.289 202.705 333.769 197.023 336.956 191.47C339.758 186.588 343.13 181.861 346.575 177.46C349.924 173.182 353.406 169.003 357.509 165.379C360.839 162.438 364.502 159.876 368.267 157.492C373.049 154.464 377.822 151.51 383.002 149.185C385.695 147.978 388.438 146.896 391.152 145.736C391.64 145.528 392.163 145.326 392.633 145.084C394.199 144.279 393.684 143.065 392.436 142.222Z" fill="#FACFDC"/>
<path fill-rule="evenodd" clip-rule="evenodd" d="M349.327 197.066C353.673 197.066 357.54 197.63 361.544 199.352C365.001 200.838 368.151 202.806 371.21 204.948C375.511 207.962 378.9 211.468 381.272 216.115C382.689 218.891 383.729 222.819 382.777 225.847C381.656 229.412 378.578 232.387 374.524 231.759C372.017 231.37 369.719 229.715 367.814 228.158C365.535 226.295 363.71 224.054 362.203 221.566C359.746 217.507 358.302 212.919 356.214 208.677C355.224 206.664 354.267 204.638 353.08 202.724C352.493 201.777 351.867 200.839 350.976 200.135C350.5 199.758 348.49 199.106 349.258 198.261C337.988 198.408 328.004 207.039 325.84 217.724C325.639 218.72 325.481 219.724 325.314 220.726C325.21 221.358 325.252 223.692 324.685 224.096C323.434 224.987 323.959 222.278 324.013 221.888C324.152 220.88 324.3 219.874 324.455 218.868C325.3 213.4 327.741 208.317 331.812 204.417C336.468 199.958 342.749 197.066 349.327 197.066Z" fill="#FF7FA6"/>
<path fill-rule="evenodd" clip-rule="evenodd" d="M36.1107 183.582C46.9602 201.733 59.5967 219.308 67.1853 239.153C66.8796 236.814 66.5552 234.477 66.192 232.144C64.2669 219.775 61.8734 207.496 59.359 195.232C58.0785 188.988 56.7236 182.766 55.3345 176.545C54.5876 173.203 53.8494 169.86 53.0868 166.522C52.902 165.713 52.7433 164.301 52.5126 162.87C59.8873 187.003 66.9993 211.154 72.2014 235.866C72.8837 239.11 73.465 242.347 73.941 245.579C74.1037 244.842 74.2642 244.105 74.4391 243.369C76.5443 234.555 79.7016 225.811 83.461 217.569C85.2582 213.629 87.3222 209.774 89.7529 206.181C91.2688 203.942 94.8434 201.281 96.2256 198.987C88.6643 212.818 85.9336 230.122 81.5674 245.158C80.502 248.827 79.4296 252.491 78.3787 256.16C84.963 242.993 95.1787 232.174 109.382 227.486C92.1895 238.814 81.8772 258.652 74.9279 278.942C74.9053 279.182 74.8779 279.423 74.8541 279.664C76.8995 275.794 79.4749 272.293 82.9658 269.842C90.4382 264.593 98.7266 266.122 105.975 270.624C100.286 267.018 90.0058 270.302 85.2193 273.967C81.7929 276.59 78.8646 280.109 76.3217 283.544C75.7126 284.367 74.8809 285.327 74.0026 286.351C72.7715 294.321 70.7651 302.237 67.924 310.09C68.3931 307.835 68.0542 304.231 68.1844 302.551C68.1984 302.369 68.21 302.187 68.224 302.006C67.7921 303.725 67.3748 305.424 66.9731 307.097C67.7718 303.906 68.2054 300.574 68.5442 297.208C68.6314 295.762 68.7169 294.316 68.8064 292.869C68.7779 290.124 68.6645 287.368 68.4727 284.608C67.7933 281.925 67.0318 279.395 66.4035 277.29C64.1385 269.697 60.8167 262.423 56.7289 255.636C52.9991 249.443 48.5343 243.834 43.3801 238.76C40.6015 236.026 37.6936 233.422 34.8267 230.782C33.79 229.827 31.937 227.481 30.3344 226.257C42.0059 232.674 54.0192 239.615 62.5337 249.954C61.5351 246.132 60.4511 242.363 59.3043 238.67C53.4856 219.934 46.1389 200.517 36.1107 183.582Z" fill="#DDE3E9"/>
<path fill-rule="evenodd" clip-rule="evenodd" d="M47.7715 286.326C47.7715 307.133 49.4238 324 71.6021 324C93.7803 324 95.4327 307.133 95.4327 286.326" fill="#C5CFD6"/>
<path d="M298.284 20.2862C298.284 19.3259 297.503 18.5474 296.54 18.5474C295.577 18.5474 294.796 19.3259 294.796 20.2862V31.2987C294.796 32.259 295.577 33.0375 296.54 33.0375C297.503 33.0375 298.284 32.259 298.284 31.2987V20.2862Z" fill="#DDE3E9"/>
<path d="M306.421 11.0126C306.421 10.0523 305.64 9.2738 304.677 9.2738C303.714 9.2738 302.934 10.0523 302.934 11.0126V31.2988C302.934 32.2592 303.714 33.0377 304.677 33.0377C305.64 33.0377 306.421 32.2592 306.421 31.2988V11.0126Z" fill="#DDE3E9"/>
<path d="M314.558 6.37566C314.558 5.41534 313.778 4.63684 312.815 4.63684C311.852 4.63684 311.071 5.41534 311.071 6.37566V31.2987C311.071 32.2591 311.852 33.0376 312.815 33.0376C313.778 33.0376 314.558 32.2591 314.558 31.2987V6.37566Z" fill="#DDE3E9"/>
<path d="M322.696 11.0126C322.696 10.0523 321.915 9.2738 320.952 9.2738C319.989 9.2738 319.208 10.0523 319.208 11.0126V31.2988C319.208 32.2592 319.989 33.0377 320.952 33.0377C321.915 33.0377 322.696 32.2592 322.696 31.2988V11.0126Z" fill="#DDE3E9"/>
<path d="M330.833 1.73882C330.833 0.778496 330.052 0 329.089 0C328.126 0 327.346 0.778496 327.346 1.73882V31.2987C327.346 32.2591 328.126 33.0376 329.089 33.0376C330.052 33.0376 330.833 32.2591 330.833 31.2987V1.73882Z" fill="#C5CFD6"/>
<path fill-rule="evenodd" clip-rule="evenodd" d="M8.82869 177.508C8.82869 171.052 14.061 165.767 20.4534 165.767V177.508L12.5091 186.054C10.2492 183.964 8.82869 180.899 8.82869 177.508Z" fill="#F2F2F2"/>
<path fill-rule="evenodd" clip-rule="evenodd" d="M20.1457 177.36H31.8851C31.8851 180.386 30.6472 183.221 28.6903 185.282C26.5378 187.535 23.4727 188.952 20.1457 188.952C17.0812 188.952 14.2761 187.729 12.1231 185.797L20.1457 177.36Z" fill="#AFB9C5"/>
<path fill-rule="evenodd" clip-rule="evenodd" d="M32.0781 177.36C32.0781 170.985 26.8458 165.767 20.4534 165.767V177.36H32.0781ZM14.641 165.767L19.2909 176.2L8.82869 171.564C9.86329 168.859 12.1865 166.799 14.641 165.767Z" fill="#C5CFD6"/>
<path fill-rule="evenodd" clip-rule="evenodd" d="M387.077 182.68C385.96 183.862 384.378 184.605 382.618 184.605C379.237 184.605 376.496 181.88 376.496 178.519C376.496 175.158 379.237 172.433 382.618 172.433V161.131C372.999 161.131 365.126 168.957 365.126 178.519C365.126 188.081 372.999 195.907 382.618 195.907C387.671 195.907 392.238 193.782 395.35 190.402L387.077 182.68Z" fill="#F2F2F2"/>
<path fill-rule="evenodd" clip-rule="evenodd" d="M382.563 161.131V172.433C385.934 172.433 388.666 175.158 388.666 178.519H400C400 168.957 392.152 161.131 382.563 161.131Z" fill="#AFB9C5"/>
<path fill-rule="evenodd" clip-rule="evenodd" d="M388.432 178.519C388.432 180.494 387.499 182.249 386.05 183.382L393.177 192.429C397.326 189.191 400 184.169 400 178.519H388.432Z" fill="#C5CFD6"/>
<path fill-rule="evenodd" clip-rule="evenodd" d="M276.227 22.8967C275.367 23.8032 274.15 24.3724 272.797 24.3724C270.196 24.3724 268.088 22.2834 268.088 19.7066C268.088 17.1297 270.196 15.0407 272.797 15.0407V6.37561C265.398 6.37561 259.341 12.3759 259.341 19.7066C259.341 27.0372 265.398 33.0375 272.797 33.0375C276.683 33.0375 280.196 31.4082 282.591 28.8168L276.227 22.8967Z" fill="#F2F2F2"/>
<path fill-rule="evenodd" clip-rule="evenodd" d="M272.71 6.37561V15.0407C275.294 15.0407 277.388 17.1297 277.388 19.7066H286.078C286.078 12.3759 280.061 6.37561 272.71 6.37561Z" fill="#AFB9C5"/>
<path fill-rule="evenodd" clip-rule="evenodd" d="M277.402 19.7065C277.402 21.1876 276.702 22.5041 275.616 23.3541L280.961 30.1395C284.073 27.7102 286.078 23.9446 286.078 19.7065H277.402Z" fill="#C5CFD6"/>
<path fill-rule="evenodd" clip-rule="evenodd" d="M64.6313 33.0295C64.629 33.0353 64.6267 33.0412 64.6232 33.0481C64.6267 33.0423 64.6313 33.0191 64.6313 33.0295Z" fill="#C5CFD6"/>
<path fill-rule="evenodd" clip-rule="evenodd" d="M64.6261 33.0382C64.6261 33.0394 64.625 33.0417 64.625 33.044C64.625 33.0382 64.6354 33.0208 64.6261 33.0382Z" fill="#C5CFD6"/>
<path fill-rule="evenodd" clip-rule="evenodd" d="M64.6662 32.9403C64.6581 32.9636 64.6476 32.9856 64.6383 33.0089C64.643 32.9973 64.6476 32.988 64.6523 32.9763C64.5314 33.2786 64.6081 33.0821 64.6662 32.9403Z" fill="#C5CFD6"/>
<path fill-rule="evenodd" clip-rule="evenodd" d="M64.6401 33.0104C64.6354 33.0208 64.6308 33.0325 64.6261 33.0429C64.5924 33.108 64.6401 33.0104 64.6401 33.0104Z" fill="#C5CFD6"/>
<path fill-rule="evenodd" clip-rule="evenodd" d="M64.6267 33.0387C64.6267 33.0375 64.6267 33.0375 64.6279 33.0364C64.6267 33.0375 64.6267 33.0375 64.6267 33.0387Z" fill="#C5CFD6"/>
<path fill-rule="evenodd" clip-rule="evenodd" d="M64.6215 33.047C64.6145 33.0609 64.654 32.9935 64.6215 33.047V33.047Z" fill="#C5CFD6"/>
<path fill-rule="evenodd" clip-rule="evenodd" d="M64.6261 33.0387L64.6284 33.0364C64.6273 33.0375 64.6273 33.0387 64.6261 33.0387Z" fill="#C5CFD6"/>
<path d="M89.6204 2.89795H39.0529C37.7689 2.89795 36.728 3.93594 36.728 5.21637V37.0947C36.728 38.3752 37.7689 39.4132 39.0529 39.4132H89.6204C90.9044 39.4132 91.9453 38.3752 91.9453 37.0947V5.21637C91.9453 3.93594 90.9044 2.89795 89.6204 2.89795Z" fill="#DDE3E9"/>
<path fill-rule="evenodd" clip-rule="evenodd" d="M57.6525 13.3309L41.3779 39.4132H73.927L57.6525 13.3309Z" fill="#AFB9C5"/>
<path fill-rule="evenodd" clip-rule="evenodd" d="M73.6364 20.2863L59.3962 39.4133H87.8767L73.6364 20.2863Z" fill="#C5CFD6"/>
<path fill-rule="evenodd" clip-rule="evenodd" d="M79.7394 20.2862C82.6287 20.2862 84.9705 17.9507 84.9705 15.0697C84.9705 12.1887 82.6287 9.85327 79.7394 9.85327C76.8501 9.85327 74.5083 12.1887 74.5083 15.0697C74.5083 17.9507 76.8501 20.2862 79.7394 20.2862Z" fill="white"/>
<path fill-rule="evenodd" clip-rule="evenodd" d="M341.872 280.521C341.875 280.527 341.877 280.533 341.881 280.54C341.877 280.534 341.872 280.511 341.872 280.521Z" fill="#C5CFD6"/>
<path fill-rule="evenodd" clip-rule="evenodd" d="M341.878 280.53C341.878 280.531 341.879 280.534 341.879 280.536C341.879 280.53 341.868 280.513 341.878 280.53Z" fill="#C5CFD6"/>
<path fill-rule="evenodd" clip-rule="evenodd" d="M341.838 280.432C341.846 280.455 341.856 280.477 341.865 280.501C341.861 280.489 341.856 280.48 341.851 280.468C341.972 280.77 341.896 280.574 341.838 280.432Z" fill="#C5CFD6"/>
<path fill-rule="evenodd" clip-rule="evenodd" d="M341.864 280.502C341.868 280.513 341.873 280.524 341.878 280.535C341.911 280.6 341.864 280.502 341.864 280.502Z" fill="#C5CFD6"/>
<path fill-rule="evenodd" clip-rule="evenodd" d="M341.877 280.531C341.877 280.53 341.877 280.53 341.876 280.528C341.877 280.53 341.877 280.53 341.877 280.531Z" fill="#C5CFD6"/>
<path fill-rule="evenodd" clip-rule="evenodd" d="M341.882 280.539C341.889 280.553 341.85 280.485 341.882 280.539V280.539Z" fill="#C5CFD6"/>
<path fill-rule="evenodd" clip-rule="evenodd" d="M341.878 280.531L341.875 280.528C341.876 280.53 341.876 280.531 341.878 280.531Z" fill="#C5CFD6"/>
<path d="M302.934 235.9H380.819C382.103 235.9 383.144 236.938 383.144 238.218V288.064C383.144 289.345 382.103 290.383 380.819 290.383H302.934C301.65 290.383 300.609 289.345 300.609 288.064V238.218C300.609 236.938 301.65 235.9 302.934 235.9Z" fill="#DDE3E9"/>
<path fill-rule="evenodd" clip-rule="evenodd" d="M352.498 251.549L376.361 290.383H328.635L352.498 251.549Z" fill="#AFB9C5"/>
<path fill-rule="evenodd" clip-rule="evenodd" d="M327.894 261.951L348.99 290.383H306.798L327.894 261.951Z" fill="#C5CFD6"/>
<path fill-rule="evenodd" clip-rule="evenodd" d="M318.918 261.982C314.584 261.982 311.071 258.479 311.071 254.157C311.071 249.836 314.584 246.333 318.918 246.333C323.251 246.333 326.764 249.836 326.764 254.157C326.764 258.479 323.251 261.982 318.918 261.982Z" fill="white"/>
</svg>
