<svg width="100" height="100" viewBox="0 0 100 100" fill="none" xmlns="http://www.w3.org/2000/svg">
<path d="M63.5754 70.9072C63.5754 71.9986 63.3487 73.0218 62.8955 73.9768C62.4771 74.9318 61.9019 75.7674 61.1697 76.4836C60.4376 77.1999 59.5834 77.7626 58.6072 78.1719C57.631 78.5812 56.6025 78.7858 55.5217 78.7858C54.4409 78.7858 53.4124 78.5812 52.4362 78.1719C51.46 77.7626 50.6058 77.1999 49.8736 76.4836C49.1415 75.7674 48.5662 74.9318 48.1478 73.9768C47.7295 73.0218 47.5203 71.9986 47.5203 70.9072C47.5203 69.8499 47.7295 68.8438 48.1478 67.8888C48.5662 66.9338 49.1415 66.1153 49.8736 65.4331C50.6058 64.751 51.46 64.2053 52.4362 63.796C53.4124 63.3868 54.4409 63.1821 55.5217 63.1821C56.6025 63.1821 57.631 63.3868 58.6072 63.796C59.5834 64.2053 60.4376 64.751 61.1697 65.4331C61.9019 66.1153 62.4771 66.9338 62.8955 67.8888C63.3487 68.8438 63.5754 69.8499 63.5754 70.9072ZM85.7492 21.8963C85.7492 24.3861 85.4179 26.6542 84.7555 28.7005C84.128 30.7128 83.2738 32.5375 82.193 34.1746C81.1122 35.7776 79.8571 37.2271 78.4276 38.5232C77.033 39.7851 75.5687 40.9277 74.0347 41.9509C72.5007 42.94 70.9492 43.8438 69.3803 44.6623C67.8114 45.4468 66.3471 46.163 64.9874 46.811C63.5231 47.5273 62.2854 48.1753 61.2743 48.7551C60.2632 49.3349 59.4439 49.9659 58.8164 50.648C58.1888 51.3301 57.7356 52.1316 57.4566 53.0525C57.1777 53.9734 57.0383 55.1501 57.0383 56.5825V57.9638C57.0383 58.646 56.7942 59.2599 56.3061 59.8056C55.8529 60.3172 55.2776 60.6071 54.5803 60.6753C53.7784 60.6753 53.0986 60.4536 52.5408 60.0102C51.9829 59.5327 51.6691 58.9529 51.5994 58.2708C51.5994 58.1685 51.582 57.9638 51.5471 57.6569C51.5123 57.3499 51.4948 56.9577 51.4948 56.4802C51.4948 54.9454 51.6866 53.4959 52.0701 52.1316C52.4885 50.7674 53.0463 49.4884 53.7436 48.2947C54.4409 47.101 55.2428 45.9754 56.1492 44.9181C57.0906 43.8608 58.1016 42.8547 59.1824 41.8997C60.2981 40.8424 61.3789 39.7681 62.4248 38.6767C63.5056 37.5853 64.447 36.3063 65.2489 34.8397C66.0856 33.3731 66.748 31.6507 67.2361 29.6726C67.7242 27.6944 67.9683 25.307 67.9683 22.5102C67.9683 20.0887 67.5325 17.8718 66.6609 15.8595C65.7893 13.8472 64.6039 12.1248 63.1047 10.6924C61.6404 9.25989 59.8972 8.15143 57.875 7.36698C55.8877 6.58254 53.761 6.19031 51.4948 6.19031C49.9259 6.19031 48.3745 6.53138 46.8404 7.21351C45.3412 7.89563 43.999 8.79945 42.8136 9.92497C41.663 11.0164 40.7217 12.2613 39.9896 13.6596C39.2923 15.058 38.9436 16.4734 38.9436 17.9059C38.9436 19.1678 39.0831 20.2251 39.362 21.0778C39.6758 21.8963 40.007 22.5784 40.3556 23.1241C40.7043 23.6357 41.0181 24.0109 41.297 24.2497C41.6107 24.4543 41.7851 24.5737 41.8199 24.6078C42.9705 25.3581 43.5457 26.2278 43.5457 27.2169C43.5457 27.899 43.2842 28.513 42.7613 29.0587C42.2732 29.6044 41.6456 29.8772 40.8786 29.8772C40.5997 29.8772 40.3208 29.8431 40.0418 29.7749C39.7978 29.7067 39.5363 29.5532 39.2574 29.3145C39.1877 29.2804 38.8565 29.0757 38.2638 28.7005C37.6711 28.2913 37.0086 27.6432 36.2765 26.7565C35.5792 25.8356 34.9342 24.6589 34.3415 23.2265C33.7837 21.794 33.5048 20.0205 33.5048 17.9059C33.5048 14.9386 34.2195 12.3295 35.6489 10.0784C37.1132 7.82742 38.9785 5.96862 41.2447 4.50205C43.5109 3.00136 46.0211 1.87585 48.7754 1.12551C51.5646 0.375171 54.284 0 56.9337 0C61.1523 0 65.0222 0.545703 68.5435 1.63711C72.0997 2.69441 75.1504 4.19509 77.6955 6.13915C80.2406 8.04911 82.2104 10.3513 83.605 13.0457C85.0344 15.7401 85.7492 18.6903 85.7492 21.8963Z" fill="#858585"/>
<path d="M44.1733 70.5449C44.1733 72.5742 43.9191 74.5339 43.4106 76.424C42.9225 78.2941 42.2209 80.0648 41.3057 81.736C40.3905 83.4072 39.2922 84.9491 38.011 86.3617C36.75 87.7544 35.3468 88.968 33.8011 90.0026C34.0858 90.9377 34.4417 91.8131 34.8688 92.6288C35.3162 93.4644 35.8349 94.1906 36.4246 94.8073C37.0348 95.444 37.7059 95.9414 38.4381 96.2995C39.1702 96.6576 39.9634 96.8366 40.8176 96.8366C41.1836 96.8366 41.5599 96.7869 41.9463 96.6874C42.3327 96.6078 42.6988 96.4586 43.0445 96.2398C43.1666 96.1403 43.2988 96.0707 43.4411 96.0309C43.6038 95.9911 43.7462 95.9712 43.8682 95.9712C44.275 95.9712 44.641 96.1105 44.9664 96.389C45.3122 96.6874 45.485 97.0654 45.485 97.523C45.485 98.1 45.241 98.5477 44.7529 98.866C44.1631 99.2241 43.5326 99.5026 42.8615 99.7016C42.1904 99.9005 41.509 100 40.8176 100C39.638 100 38.5398 99.7812 37.5229 99.3435C36.506 98.9058 35.5806 98.3089 34.7468 97.5529C33.913 96.7969 33.1706 95.9016 32.5198 94.867C31.8894 93.8523 31.3606 92.7581 30.9335 91.5843C29.5505 92.2209 28.1167 92.7083 26.6321 93.0466C25.1678 93.4047 23.6425 93.5837 22.0561 93.5837C20.0427 93.5837 18.0903 93.3052 16.1989 92.7481C14.3278 92.211 12.5788 91.445 10.9518 90.4502C9.32479 89.4356 7.82998 88.2319 6.46736 86.8392C5.12508 85.4266 3.976 83.8748 3.02013 82.1837C2.06427 80.4727 1.32194 78.6323 0.793167 76.6627C0.264389 74.6931 0 72.6538 0 70.5449C0 68.436 0.264389 66.3967 0.793167 64.427C1.32194 62.4574 2.06427 60.627 3.02013 58.9359C3.976 57.2249 5.12508 55.673 6.46736 54.2804C7.82998 52.8678 9.32479 51.6641 10.9518 50.6694C12.5788 49.6547 14.3278 48.8788 16.1989 48.3416C18.0903 47.7845 20.0427 47.506 22.0561 47.506C24.1916 47.506 26.2152 47.8044 28.1269 48.4013C30.059 48.9981 31.8385 49.8238 33.4655 50.8783C35.1129 51.9327 36.5975 53.1861 37.9195 54.6385C39.2414 56.0909 40.36 57.6725 41.2752 59.3835C42.2107 61.0945 42.9225 62.8951 43.4106 64.7851C43.9191 66.6752 44.1733 68.5951 44.1733 70.5449ZM41.0006 70.5449C41.0006 69.192 40.8176 67.7794 40.4515 66.3071C40.0854 64.815 39.5668 63.3626 38.8957 61.95C38.2449 60.5176 37.4517 59.1647 36.5162 57.8914C35.601 56.5982 34.5841 55.4741 33.4655 54.5191C32.3673 53.5442 31.1877 52.7783 29.9268 52.2212C28.6659 51.6442 27.3744 51.3557 26.0525 51.3557C24.2628 51.3557 22.6459 51.6144 21.202 52.1317C19.758 52.6489 18.4665 53.3552 17.3276 54.2505C16.2091 55.1259 15.2329 56.1704 14.399 57.3841C13.5652 58.5977 12.8737 59.9008 12.3246 61.2935C11.7958 62.6663 11.3992 64.1087 11.1348 65.6208C10.8704 67.1129 10.7383 68.5951 10.7383 70.0674C10.7383 71.6789 10.8298 73.2904 11.0128 74.902C11.2162 76.5135 11.5416 78.0653 11.989 79.5575C12.4568 81.0297 13.0466 82.4125 13.7584 83.7057C14.4905 84.979 15.3854 86.0931 16.443 87.0481C17.5005 87.9832 18.7309 88.7193 20.1342 89.2565C21.5579 89.7937 23.1747 90.0623 24.9847 90.0623C25.8999 90.0623 26.7846 89.9528 27.6388 89.734C28.5133 89.4952 29.3573 89.1769 30.1708 88.779C29.6827 87.267 28.9811 86.113 28.0659 85.3172C27.1507 84.5214 25.961 84.1235 24.4966 84.1235C24.0289 84.1235 23.5815 84.1633 23.1544 84.2429C22.7476 84.3224 22.3714 84.412 22.0256 84.5114C21.6392 84.6109 21.2731 84.7303 20.9274 84.8696C20.6833 84.9889 20.4596 85.0486 20.2563 85.0486C19.8698 85.0486 19.5038 84.8994 19.158 84.601C18.8123 84.2826 18.6394 83.8947 18.6394 83.4371C18.6394 83.1586 18.7208 82.89 18.8835 82.6313C19.0462 82.3727 19.2699 82.1737 19.5546 82.0345C19.5749 82.0146 19.7173 81.9549 19.9817 81.8554C20.2664 81.736 20.6325 81.6167 21.0799 81.4973C21.5274 81.3779 22.046 81.2685 22.6358 81.169C23.2255 81.0695 23.8458 81.0198 24.4966 81.0198C26.5304 81.0198 28.2489 81.547 29.6522 82.6015C31.0759 83.6559 32.1741 85.1381 32.9469 87.0481C34.1265 86.0931 35.2044 84.979 36.1806 83.7057C37.1771 82.4324 38.0313 81.0695 38.7431 79.6172C39.455 78.1648 40.0041 76.6627 40.3905 75.1109C40.7972 73.559 41.0006 72.037 41.0006 70.5449Z" fill="#F42A66"/>
<path d="M99.939 81.0795C99.6339 82.3926 99.4 83.7256 99.2373 85.0785C99.095 86.4313 99.0238 87.8439 99.0238 89.3162V89.8832C98.9831 90.3408 98.8204 90.7188 98.5357 91.0172C98.251 91.3157 97.8849 91.4649 97.4375 91.4649H97.3764C95.7291 91.4052 94.0614 91.3654 92.3734 91.3455C90.7057 91.3057 89.0482 91.2858 87.4009 91.2858C84.2892 91.2858 81.2081 91.3356 78.1574 91.435C75.1068 91.5146 72.0561 91.6638 69.0055 91.8827H68.8835C68.4564 91.8827 68.0903 91.7235 67.7852 91.4052C67.4802 91.067 67.3276 90.7188 67.3276 90.3607C67.3276 90.2015 67.3378 90.0523 67.3581 89.913C67.3988 89.7539 67.47 89.5947 67.5717 89.4356L85.6315 63.4124H84.3807C82.469 63.4124 80.5979 63.3825 78.7675 63.3228C76.9372 63.2631 75.1068 63.1836 73.2764 63.0841C72.8696 65.4516 72.2595 67.7595 71.446 70.0077C71.324 70.3459 71.1206 70.6046 70.8359 70.7836C70.5715 70.9627 70.2766 71.0522 69.9512 71.0522C69.4427 71.0522 69.0462 70.893 68.7614 70.5747C68.4767 70.2365 68.3343 69.8883 68.3343 69.5302C68.3343 69.4307 68.3445 69.3412 68.3649 69.2616C68.3852 69.1621 68.4157 69.0627 68.4564 68.9632C68.9241 67.7098 69.3004 66.4365 69.5851 65.1433C69.8698 63.8501 70.0936 62.5768 70.2563 61.3233C70.2969 60.9254 70.4698 60.5972 70.7749 60.3385C71.1003 60.06 71.4562 59.9207 71.8426 59.9207H71.9646C73.9984 60.0401 76.0423 60.1197 78.0964 60.1595C80.1505 60.1993 82.2453 60.2191 84.3807 60.2191C86.5568 60.2191 88.7533 60.1993 90.9701 60.1595C93.2072 60.1197 95.4952 60.0401 97.834 59.9207H97.9561C98.4238 59.9207 98.8001 60.0898 99.0848 60.428C99.3695 60.7464 99.5119 61.1045 99.5119 61.5024C99.5119 61.6616 99.4916 61.8207 99.4509 61.9799C99.4305 62.1192 99.3695 62.2485 99.2678 62.3679L81.3301 88.212C82.3266 88.1722 83.3333 88.1523 84.3502 88.1523C85.3874 88.1523 86.4246 88.1523 87.4619 88.1523C88.8652 88.1523 90.2583 88.1622 91.6412 88.1821C93.0242 88.1821 94.4173 88.212 95.8206 88.2717C95.8613 86.8591 95.963 85.5062 96.1257 84.213C96.3087 82.9198 96.5426 81.6465 96.8273 80.3931C96.929 80.0151 97.1222 79.7166 97.407 79.4978C97.712 79.2789 98.0374 79.1695 98.3832 79.1695C98.9119 79.1695 99.3085 79.3486 99.5729 79.7067C99.8576 80.0648 100 80.3931 100 80.6915C100 80.7512 100 80.8208 100 80.9004C100 80.9601 99.9797 81.0198 99.939 81.0795Z" fill="#F42A66"/>
</svg>
